<?xml version="1.0" encoding="utf-8"?>
<!-- Generator: Adobe Illustrator 15.0.0, SVG Export Plug-In . SVG Version: 6.00 Build 0)  -->
<!DOCTYPE svg PUBLIC "-//W3C//DTD SVG 1.1//EN" "http://www.w3.org/Graphics/SVG/1.1/DTD/svg11.dtd">
<svg version="1.1" id="Layer_1" xmlns="http://www.w3.org/2000/svg" xmlns:xlink="http://www.w3.org/1999/xlink" x="0px" y="0px"
	 width="841.889px" height="595.281px" viewBox="0 0 841.889 595.281" enable-background="new 0 0 841.889 595.281"
	 xml:space="preserve">
<g id="Layer_1_1_">
</g>
<g id="Layer_2">
</g>
<g>
	<path fill="none" stroke="#00FF00" stroke-width="2" stroke-miterlimit="10" d="M393.5,329.991h-20.035v14.542"/>
	<path fill="none" stroke="#000000" stroke-width="2" stroke-miterlimit="10" d="M313.361,157.315h-200.35v57.029"/>
	<path fill="none" stroke="#00FF00" stroke-width="2" stroke-miterlimit="10" d="M393.5,359.074h-20.035v-14.541"/>
	<path fill="none" stroke="#FF0000" stroke-width="2" stroke-miterlimit="10" d="M393.5,533.568h-20.035v-14.542"/>
	<path fill="none" stroke="#FF0000" stroke-width="2" stroke-miterlimit="10" d="M393.5,504.486h-20.035v14.54"/>
	<path fill="none" stroke="#00FF00" stroke-width="2" stroke-miterlimit="10" d="M393.5,388.156h-60.104v25.447"/>
	<path fill="none" stroke="#FF0000" stroke-width="2" stroke-miterlimit="10" d="M373.465,519.026H353.43v21.812"/>
	<path fill="none" stroke="#00FF00" stroke-width="2" stroke-miterlimit="10" d="M353.43,279.096H233.22v49.984"/>
	<path fill="none" stroke="#00FF00" stroke-width="2" stroke-miterlimit="10" d="M373.465,344.533h-80.14v34.535"/>
	<path fill="none" stroke="#FF0000" stroke-width="2" stroke-miterlimit="10" d="M393.5,562.65h-40.07v-21.812"/>
	<path fill="none" stroke="#0000FF" stroke-width="2" stroke-miterlimit="10" d="M393.5,184.579H313.36v-27.265"/>
	<path fill="none" stroke="#00FF00" stroke-width="2" stroke-miterlimit="10" d="M393.5,446.32h-20.035v14.542"/>
	<path fill="none" stroke="#0000FF" stroke-width="2" stroke-miterlimit="10" d="M393.5,68.25h-20.035v14.542"/>
	<path fill="none" stroke="#00FF00" stroke-width="2" stroke-miterlimit="10" d="M393.5,417.238h-40.07v21.812"/>
	<path fill="none" stroke="#00FF00" stroke-width="2" stroke-miterlimit="10" d="M373.465,257.285H353.43v21.812"/>
	<path fill="none" stroke="#00FF00" stroke-width="2" stroke-miterlimit="10" d="M293.325,379.068H233.22v-49.986"/>
	<path fill="none" stroke="#000000" stroke-width="2" stroke-miterlimit="10" d="M49.5,377.593h3.404"/>
	<path fill="none" stroke="#00FF00" stroke-width="2" stroke-miterlimit="10" d="M393.5,271.826h-20.035v-14.542"/>
	<path fill="none" stroke="#00FF00" stroke-width="2" stroke-miterlimit="10" d="M393.5,242.744h-20.035v14.541"/>
	<path fill="none" stroke="#00FF00" stroke-width="2" stroke-miterlimit="10" d="M393.5,213.661H213.185v57.711"/>
	<path fill="none" stroke="#000000" stroke-width="2" stroke-miterlimit="10" d="M213.185,271.372H113.011v-57.028"/>
	<path fill="none" stroke="#00FF00" stroke-width="2" stroke-miterlimit="10" d="M353.43,439.051h-20.034v-25.446"/>
	<path fill="none" stroke="#00FF00" stroke-width="2" stroke-miterlimit="10" d="M373.465,460.862H353.43v-21.812"/>
	<path fill="none" stroke="#0000FF" stroke-width="2" stroke-miterlimit="10" d="M353.43,104.603h-20.034v25.446"/>
	<path fill="none" stroke="#0000FF" stroke-width="2" stroke-miterlimit="10" d="M393.5,126.414h-40.07v-21.812"/>
	<path fill="none" stroke="#0000FF" stroke-width="2" stroke-miterlimit="10" d="M393.5,97.332h-20.035V82.791"/>
	<path fill="none" stroke="#00FF00" stroke-width="2" stroke-miterlimit="10" d="M393.5,300.909h-40.07v-21.812"/>
	<path fill="none" stroke="#0000FF" stroke-width="2" stroke-miterlimit="10" d="M393.5,155.496h-60.104V130.05"/>
	<path fill="none" stroke="#0000FF" stroke-width="2" stroke-miterlimit="10" d="M333.396,130.05h-20.035v27.266"/>
	<path fill="none" stroke="#0000FF" stroke-width="2" stroke-miterlimit="10" d="M373.465,82.791H353.43v21.812"/>
	<path fill="none" stroke="#00FF00" stroke-width="2" stroke-miterlimit="10" d="M233.22,329.082h-20.035v-57.709"/>
	<path fill="none" stroke="#00FF00" stroke-width="2" stroke-miterlimit="10" d="M393.5,475.402h-20.035v-14.54"/>
	<path fill="none" stroke="#000000" stroke-width="2" stroke-miterlimit="10" d="M353.43,540.839H52.906V377.593"/>
	<path fill="none" stroke="#000000" stroke-width="2" stroke-miterlimit="10" d="M113.011,214.344H52.906v163.248"/>
	<path fill="none" stroke="#00FF00" stroke-width="2" stroke-miterlimit="10" d="M333.396,413.603h-40.069v-34.535"/>
</g>
<g transform="matrix(1,0,0,1,441,179.2647)">
	<text transform="matrix(1 0 0 1 -43.5002 37.9977)" font-family="'Arial-BoldMT'" font-size="11.2">Th086.07</text>
</g>
<g transform="matrix(1,0,0,1,441,324.6765)">
	<text transform="matrix(1 0 0 1 -43.5002 8.915)" font-family="'Arial-BoldMT'" font-size="11.2">Th106.09</text>
</g>
<g transform="matrix(1,0,0,1,441,361.0294)">
	<text transform="matrix(1 0 0 1 -43.5002 1.6442)" font-family="'Arial-BoldMT'" font-size="11.2">Th074.13</text>
</g>
<g transform="matrix(1,0,0,1,441,397.3824)">
	<text transform="matrix(1 0 0 1 -43.5002 -5.6268)" font-family="'Arial-BoldMT'" font-size="11.2">Th162.12</text>
</g>
<g transform="matrix(1,0,0,1,441,542.7941)">
	<text transform="matrix(1 0 0 1 -43.5002 -34.7084)" font-family="'Arial-BoldMT'" font-size="11.2">Th061.13</text>
</g>
<g transform="matrix(1,0,0,1,441,579.1471)">
	<text transform="matrix(1 0 0 1 -43.5002 -41.9794)" font-family="'Arial-BoldMT'" font-size="11.2">Th095.13</text>
</g>
<g transform="matrix(1,0,0,1,441,33.8529)">
	<text transform="matrix(1 0 0 1 -43.5002 67.0795)" font-family="'Arial-BoldMT'" font-size="11.2">Th245.13</text>
</g>
<g transform="matrix(1,0,0,1,441,70.2059)">
	<text transform="matrix(1 0 0 1 -43.5002 59.8085)" font-family="'Arial-BoldMT'" font-size="11.2">Th211.13</text>
</g>
<g transform="matrix(1,0,0,1,441,615.5)">
	<text transform="matrix(1 0 0 1 -43.5002 -49.2502)" font-family="'Arial-BoldMT'" font-size="11.2">Th068.12</text>
</g>
<g transform="matrix(1,0,0,1,441,106.5588)">
	<text transform="matrix(1 0 0 1 -43.5002 52.5386)" font-family="'Arial-BoldMT'" font-size="11.2">Th246.13</text>
</g>
<g transform="matrix(1,0,0,1,441,288.3235)">
	<text transform="matrix(1 0 0 1 -43.5002 16.186)" font-family="'Arial-BoldMT'" font-size="11.2">Th134.11</text>
</g>
<g transform="matrix(1,0,0,1,441,142.9118)">
	<text transform="matrix(1 0 0 1 -43.5002 45.2676)" font-family="'Arial-BoldMT'" font-size="11.2">Th092.13</text>
</g>
<g transform="matrix(1,0,0,1,441,-2.5)">
	<text transform="matrix(1 0 0 1 -43.5002 74.3503)" font-family="'Arial-BoldMT'" font-size="11.2">Th166.12</text>
</g>
<g transform="matrix(1,0,0,1,441,470.0882)">
	<text transform="matrix(1 0 0 1 -43.5002 -20.1675)" font-family="'Arial-BoldMT'" font-size="11.2">Th230.12</text>
</g>
<g transform="matrix(1,0,0,1,441,506.4412)">
	<text transform="matrix(1 0 0 1 -43.5002 -27.4385)" font-family="'Arial-BoldMT'" font-size="11.2">Th196.12</text>
</g>
<g transform="matrix(1,0,0,1,441,433.7353)">
	<text transform="matrix(1 0 0 1 -43.5002 -12.8976)" font-family="'Arial-BoldMT'" font-size="11.2">Th132.11</text>
</g>
<g transform="matrix(1,0,0,1,441,215.6176)">
	<text transform="matrix(1 0 0 1 -43.5002 30.7269)" font-family="'Arial-BoldMT'" font-size="11.2">Th106.11</text>
</g>
<g transform="matrix(1,0,0,1,441,251.9706)">
	<text transform="matrix(1 0 0 1 -43.5002 23.4559)" font-family="'Arial-BoldMT'" font-size="11.2">Th117.11</text>
</g>
<g transform="matrix(1,0,0,1,215.6069,253.4026)">
	<text transform="matrix(1 0 0 1 1.5789 -20.23)" font-family="'ArialMT'" font-size="8.8">100%</text>
</g>
<g transform="matrix(1,0,0,1,340.8253,110.8309)">
	<text transform="matrix(1 0 0 1 -23.4657 59.2841)" font-family="'ArialMT'" font-size="8.8">100%</text>
</g>
<g transform="matrix(1,0,0,1,390.9126,263.0588)">
	<text transform="matrix(1 0 0 1 -33.4832 26.8384)" font-family="'ArialMT'" font-size="8.8">100%</text>
</g>
<g transform="matrix(1,0,0,1,415.9563,562.9706)">
	<text transform="matrix(1 0 0 1 -38.4907 -41.1447)" font-family="'ArialMT'" font-size="8.8">100%</text>
</g>
<g transform="matrix(1,0,0,1,390.9126,463)">
	<text transform="matrix(1 0 0 1 -33.4832 -27.1506)" font-family="'ArialMT'" font-size="8.8">78%</text>
</g>
<g transform="matrix(1,0,0,1,415.9563,490.2647)">
	<text transform="matrix(1 0 0 1 -38.4907 -26.6028)" font-family="'ArialMT'" font-size="8.8">49%</text>
</g>
<g transform="matrix(1,0,0,1,415.9563,344.8529)">
	<text transform="matrix(1 0 0 1 -38.4907 2.4799)" font-family="'ArialMT'" font-size="8.8">59%</text>
</g>
<g transform="matrix(1,0,0,1,390.9126,44.9412)">
	<text transform="matrix(1 0 0 1 -33.4832 67.4619)" font-family="'ArialMT'" font-size="8.8">93%</text>
</g>
<g transform="matrix(1,0,0,1,365.869,76.75)">
	<text transform="matrix(1 0 0 1 -28.4737 65.1003)" font-family="'ArialMT'" font-size="8.8">58%</text>
</g>
<g transform="matrix(1,0,0,1,415.9563,17.6765)">
	<text transform="matrix(1 0 0 1 -38.4907 67.915)" font-family="'ArialMT'" font-size="8.8">86%</text>
</g>
<g transform="matrix(1,0,0,1,240.6506,325.5404)">
	<text transform="matrix(1 0 0 1 -3.4301 -6.6578)" font-family="'ArialMT'" font-size="8.8">100%</text>
</g>
<g transform="matrix(1,0,0,1,415.9563,235.7941)">
	<text transform="matrix(1 0 0 1 -38.4907 27.2916)" font-family="'ArialMT'" font-size="8.8">78%</text>
</g>
<g transform="matrix(1,0,0,1,390.9126,590.2353)">
	<text transform="matrix(1 0 0 1 -33.4832 -41.5978)" font-family="'ArialMT'" font-size="8.8">100%</text>
</g>
<g transform="matrix(1,0,0,1,365.869,431.1912)">
	<text transform="matrix(1 0 0 1 -28.4737 -20.7881)" font-family="'ArialMT'" font-size="8.8">89%</text>
</g>
<g transform="matrix(1,0,0,1,315.7816,388.0221)">
	<text transform="matrix(1 0 0 1 -18.4561 -12.1542)" font-family="'ArialMT'" font-size="8.8">100%</text>
</g>
<line fill="none" stroke="#909090" stroke-miterlimit="10" x1="399.5" y1="82.791" x2="550.112" y2="82.791"/>
<line fill="none" stroke="#909090" stroke-miterlimit="10" x1="379.466" y1="110.899" x2="550.112" y2="110.899"/>
<line fill="none" stroke="#909090" stroke-miterlimit="10" x1="359.43" y1="139.007" x2="550.112" y2="139.007"/>
<line fill="none" stroke="#909090" stroke-miterlimit="10" x1="345.413" y1="167.115" x2="550.112" y2="167.115"/>
<line fill="none" stroke="#909090" stroke-miterlimit="10" x1="244.111" y1="230.14" x2="550.112" y2="230.14"/>
<line fill="none" stroke="#909090" stroke-miterlimit="10" x1="399.5" y1="258.981" x2="550.112" y2="258.981"/>
<line fill="none" stroke="#909090" stroke-miterlimit="10" x1="385.483" y1="287.821" x2="550.112" y2="287.821"/>
<line fill="none" stroke="#909090" stroke-miterlimit="10" x1="265.273" y1="316.661" x2="550.112" y2="316.661"/>
<line fill="none" stroke="#909090" stroke-miterlimit="10" x1="399.5" y1="345.502" x2="550.112" y2="345.502"/>
<line fill="none" stroke="#909090" stroke-miterlimit="10" x1="325.378" y1="374.342" x2="550.112" y2="374.342"/>
<line fill="none" stroke="#909090" stroke-miterlimit="10" x1="359.43" y1="403.181" x2="550.112" y2="403.181"/>
<line fill="none" stroke="#909090" stroke-miterlimit="10" x1="379.466" y1="432.022" x2="550.112" y2="432.022"/>
<line fill="none" stroke="#909090" stroke-miterlimit="10" x1="399.5" y1="460.862" x2="550.112" y2="460.862"/>
<line fill="none" stroke="#909090" stroke-miterlimit="10" x1="402.778" y1="519.026" x2="550.112" y2="519.026"/>
<line fill="none" stroke="#909090" stroke-miterlimit="10" x1="385.483" y1="545.839" x2="550.112" y2="545.839"/>
</svg>
