<?xml version="1.0" encoding="utf-8"?>
<!-- Generator: Adobe Illustrator 15.0.0, SVG Export Plug-In . SVG Version: 6.00 Build 0)  -->
<!DOCTYPE svg PUBLIC "-//W3C//DTD SVG 1.1//EN" "http://www.w3.org/Graphics/SVG/1.1/DTD/svg11.dtd">
<svg version="1.1" id="Layer_1" xmlns="http://www.w3.org/2000/svg" xmlns:xlink="http://www.w3.org/1999/xlink" x="0px" y="0px"
	 width="841.889px" height="595.281px" viewBox="0 0 841.889 595.281" enable-background="new 0 0 841.889 595.281"
	 xml:space="preserve">
<g id="Layer_1_1_" display="none">
	<g id="Layer_2" display="inline">
		<g>
			<g>
				<path fill="none" stroke="#00FF00" stroke-width="2" stroke-miterlimit="10" d="M552.878,224.693v21.542h-3.967"/>
				<path fill="none" stroke="#000000" stroke-width="2" stroke-miterlimit="10" d="M808.98,381.829V266.095h-12.572"/>
				<path fill="none" stroke="#00FF00" stroke-width="2" stroke-miterlimit="10" d="M559.193,397.032v21.541h-2.68"/>
				<path fill="none" stroke="#00FF00" stroke-width="2" stroke-miterlimit="10" d="M552.878,224.693v-21.542h-0.205"/>
				<path fill="none" stroke="#00FF00" stroke-width="2" stroke-miterlimit="10" d="M568.271,399.052v48.246h-9.867"/>
				<path fill="none" stroke="#00FF00" stroke-width="2" stroke-miterlimit="10" d="M559.193,397.032v-21.543h-0.242"/>
				<path fill="none" stroke="#00FF00" stroke-width="2" stroke-miterlimit="10" d="M552.673,203.152V188.79h-2.48"/>
				<path fill="none" stroke="#00FF00" stroke-width="2" stroke-miterlimit="10" d="M554.351,304.579v-27.825h-0.609"/>
				<path fill="none" stroke="#000000" stroke-width="2" stroke-miterlimit="10" d="M796.406,266.095V133.139H516.706"/>
				<path fill="none" stroke="#00FF00" stroke-width="2" stroke-miterlimit="10" d="M554.351,304.579v27.826h-1.031"/>
				<path fill="none" stroke="#00FF00" stroke-width="2" stroke-miterlimit="10" d="M553.204,249.826v-25.133h-0.326"/>
				<path fill="none" stroke="#FF0000" stroke-width="2" stroke-miterlimit="10" d="M517.359,497.561v21.543h-3.096"/>
				<path fill="none" stroke="#0000FF" stroke-width="2" stroke-miterlimit="10" d="M514.632,81.079V59.537h-1.668"/>
				<path fill="none" stroke="#FF0000" stroke-width="2" stroke-miterlimit="10" d="M514.263,519.104v14.36h-5.871"/>
				<path fill="none" stroke="#FF0000" stroke-width="2" stroke-miterlimit="10" d="M514.263,519.104v-14.362h-7.266"/>
				<path fill="none" stroke="#000000" stroke-width="2" stroke-miterlimit="10" d="M515.929,106.211V81.079h-1.297"/>
				<path fill="none" stroke="#00FF00" stroke-width="2" stroke-miterlimit="10" d="M562.087,350.805v-46.229h-7.736"/>
				<path fill="none" stroke="#000000" stroke-width="2" stroke-miterlimit="10" d="M808.98,381.829v115.732H517.359"/>
				<path fill="none" stroke="#0000FF" stroke-width="2" stroke-miterlimit="10" d="M512.964,59.537v14.361h-5.967"/>
				<path fill="none" stroke="#000000" stroke-width="2" stroke-miterlimit="10" d="M796.406,266.095v132.955H568.271"/>
				<path fill="none" stroke="#00FF00" stroke-width="2" stroke-miterlimit="10" d="M558.948,375.489V361.13h-2.674"/>
				<path fill="none" stroke="#FF0000" stroke-width="2" stroke-miterlimit="10" d="M517.359,497.561v-21.542h-5.244"/>
				<path fill="none" stroke="#000000" stroke-width="2" stroke-miterlimit="10" d="M808.98,381.829H812"/>
				<path fill="none" stroke="#00FF00" stroke-width="2" stroke-miterlimit="10" d="M558.948,375.489v14.361h-2.905"/>
				<path fill="none" stroke="#00FF00" stroke-width="2" stroke-miterlimit="10" d="M562.087,350.805v46.227h-2.896"/>
				<path fill="none" stroke="#00FF00" stroke-width="2" stroke-miterlimit="10" d="M553.204,249.826v25.132h-5.521"/>
				<path fill="none" stroke="#00FF00" stroke-width="2" stroke-miterlimit="10" d="M552.673,203.152v14.361h-3.232"/>
				<path fill="none" stroke="#0000FF" stroke-width="2" stroke-miterlimit="10" d="M514.632,81.079v21.542h-6.182"/>
				<path fill="none" stroke="#000000" stroke-width="2" stroke-miterlimit="10" d="M516.706,133.139v-26.93h-0.777"/>
				<path fill="none" stroke="#0000FF" stroke-width="2" stroke-miterlimit="10" d="M515.929,106.211v25.135h-4.072"/>
				<path fill="none" stroke="#0000FF" stroke-width="2" stroke-miterlimit="10" d="M512.964,59.537V45.175h-4.018"/>
				<path fill="none" stroke="#00FF00" stroke-width="2" stroke-miterlimit="10" d="M568.271,399.052v-48.245h-6.184"/>
				<path fill="none" stroke="#0000FF" stroke-width="2" stroke-miterlimit="10" d="M516.706,133.139v26.928h-3.678"/>
				<path fill="none" stroke="#00FF00" stroke-width="2" stroke-miterlimit="10" d="M553.74,276.754v26.93h-3.395"/>
				<path fill="none" stroke="#00FF00" stroke-width="2" stroke-miterlimit="10" d="M553.74,276.754v-26.928h-0.535"/>
			</g>
			<g transform="matrix(1,0,0,1,274.086,201.1765)">
				<text transform="matrix(1.0056 0 0 1 218.465 49.0361)" font-family="'Arial-BoldMT'" font-size="11.9338">Th196.12</text>
			</g>
			<g transform="matrix(1,0,0,1,316,461.1176)">
				<text transform="matrix(1.0056 0 0 1 134.637 47.6009)" font-family="'Arial-BoldMT'" font-size="11.9338">Th061.13</text>
			</g>
			<g transform="matrix(1,0,0,1,314.6087,490)">
				<text transform="matrix(1.0056 0 0 1 137.4199 47.4412)" font-family="'Arial-BoldMT'" font-size="11.9338">Th095.13</text>
			</g>
			<g transform="matrix(1,0,0,1,266.4861,374.4706)">
				<text transform="matrix(1.0056 0 0 1 234.3266 48.0789)" font-family="'Arial-BoldMT'" font-size="11.9338">Th134.11</text>
			</g>
			<g transform="matrix(1,0,0,1,316,27.8824)">
				<text transform="matrix(1.0056 0 0 1 134.637 49.9924)" font-family="'Arial-BoldMT'" font-size="11.9338">Th245.13</text>
			</g>
			<g transform="matrix(1,0,0,1,272.808,143.4118)">
				<text transform="matrix(1.0056 0 0 1 221.0213 49.3546)" font-family="'Arial-BoldMT'" font-size="11.9338">Th230.12</text>
			</g>
			<g transform="matrix(1,0,0,1,264.597,403.3529)">
				<text transform="matrix(1.0056 0 0 1 237.4433 47.9203)" font-family="'Arial-BoldMT'" font-size="11.9338">Th086.07</text>
			</g>
			<g transform="matrix(1,0,0,1,266.7237,316.7059)">
				<text transform="matrix(1.0056 0 0 1 233.8508 48.3983)" font-family="'Arial-BoldMT'" font-size="11.9338">Th106.11</text>
			</g>
			<g transform="matrix(1,0,0,1,310.8851,432.2353)">
				<text transform="matrix(1.0056 0 0 1 144.8661 47.7606)" font-family="'Arial-BoldMT'" font-size="11.9338">Th068.12</text>
			</g>
			<g transform="matrix(1,0,0,1,266.9561,345.5882)">
				<text transform="matrix(1.0056 0 0 1 234.0481 48.2387)" font-family="'Arial-BoldMT'" font-size="11.9338">Th117.11</text>
			</g>
			<g transform="matrix(1,0,0,1,273.5587,172.2941)">
				<text transform="matrix(1.0056 0 0 1 220.1818 49.1959)" font-family="'Arial-BoldMT'" font-size="11.9338">Th132.11</text>
			</g>
			<g transform="matrix(1,0,0,1,275.3164,230.0588)">
				<text transform="matrix(1.0056 0 0 1 216.0042 48.8775)" font-family="'Arial-BoldMT'" font-size="11.9338">Th162.12</text>
			</g>
			<g transform="matrix(1,0,0,1,314.5469,56.7647)">
				<text transform="matrix(1.0056 0 0 1 138.2053 49.8337)" font-family="'Arial-BoldMT'" font-size="11.9338">Th211.13</text>
			</g>
			<g transform="matrix(1,0,0,1,314.0523,-1)">
				<text transform="matrix(1.0056 0 0 1 138.5329 50.1521)" font-family="'Arial-BoldMT'" font-size="11.9338">Th166.12</text>
			</g>
			<g transform="matrix(1,0,0,1,311.1438,85.6471)">
				<text transform="matrix(1.0056 0 0 1 144.3496 49.674)" font-family="'Arial-BoldMT'" font-size="11.9338">Th246.13</text>
			</g>
			<g transform="matrix(1,0,0,1,309.9701,114.5294)">
				<text transform="matrix(1.0056 0 0 1 146.6962 49.5153)" font-family="'Arial-BoldMT'" font-size="11.9338">Th092.13</text>
			</g>
			<g transform="matrix(1,0,0,1,269.6796,287.8235)">
				<text transform="matrix(1.0056 0 0 1 227.2777 48.5581)" font-family="'Arial-BoldMT'" font-size="11.9338">Th106.09</text>
			</g>
			<g transform="matrix(1,0,0,1,272.6531,258.9412)">
				<text transform="matrix(1.0056 0 0 1 221.3305 48.7168)" font-family="'Arial-BoldMT'" font-size="11.9338">Th074.13</text>
			</g>
		</g>
	</g>
</g>
<g id="Layer_5" display="none">
	<g id="Layer_1_2_" display="inline">
		<g>
			<g>
				<path fill="none" stroke="#FF0000" stroke-width="2" stroke-miterlimit="10" d="M289,504.235h-4.432v14.383"/>
				<path fill="none" stroke="#00FF00" stroke-width="2" stroke-miterlimit="10" d="M227.781,360.412h-1.684v14.385"/>
				<path fill="none" stroke="#00FF00" stroke-width="2" stroke-miterlimit="10" d="M231.235,331.647h-1.457v-27.866"/>
				<path fill="none" stroke="#00FF00" stroke-width="2" stroke-miterlimit="10" d="M232.016,187.824h-1.52v14.382"/>
				<path fill="none" stroke="#0000FF" stroke-width="2" stroke-miterlimit="10" d="M288.372,72.764h-2.295V58.383"/>
				<path fill="none" stroke="#0000FF" stroke-width="2" stroke-miterlimit="10" d="M288.63,101.529h-2.951V79.956"/>
				<path fill="none" stroke="#0000FF" stroke-width="2" stroke-miterlimit="10" d="M288.428,44h-2.351v14.383"/>
				<path fill="none" stroke="#00FF00" stroke-width="2" stroke-miterlimit="10" d="M230.067,275.916h-0.289v27.865"/>
				<path fill="none" stroke="#000000" stroke-width="2" stroke-miterlimit="10" d="M282.369,497.047H33.555V381.143"/>
				<path fill="none" stroke="#00FF00" stroke-width="2" stroke-miterlimit="10" d="M226.533,417.941h-0.65v-21.573"/>
				<path fill="none" stroke="#00FF00" stroke-width="2" stroke-miterlimit="10" d="M231.088,274.118h-0.895v-25.169"/>
				<path fill="none" stroke="#FF0000" stroke-width="2" stroke-miterlimit="10" d="M289,533h-4.432v-14.382"/>
				<path fill="none" stroke="#00FF00" stroke-width="2" stroke-miterlimit="10" d="M231.461,216.589h-0.965v-14.383"/>
				<path fill="none" stroke="#FF0000" stroke-width="2" stroke-miterlimit="10" d="M284.571,518.618h-2.199v-21.571"/>
				<path fill="none" stroke="#00FF00" stroke-width="2" stroke-miterlimit="10" d="M230.248,223.779h-0.055v25.17"/>
				<path fill="none" stroke="#00FF00" stroke-width="2" stroke-miterlimit="10" d="M231.781,245.353h-1.532v-21.574"/>
				<path fill="none" stroke="#000000" stroke-width="2" stroke-miterlimit="10" d="M285.35,105.125h-0.552v26.967"/>
				<path fill="none" stroke="#000000" stroke-width="2" stroke-miterlimit="10" d="M285.679,79.956h-0.329v25.169"/>
				<path fill="none" stroke="#000000" stroke-width="2" stroke-miterlimit="10" d="M219.061,398.39H46.928V265.241"/>
				<path fill="none" stroke="#00FF00" stroke-width="2" stroke-miterlimit="10" d="M229.778,303.781h-7.226v46.294"/>
				<path fill="none" stroke="#00FF00" stroke-width="2" stroke-miterlimit="10" d="M231.137,302.883h-1.07v-26.967"/>
				<path fill="none" stroke="#000000" stroke-width="2" stroke-miterlimit="10" d="M286.077,58.383h-0.398v21.573"/>
				<path fill="none" stroke="#FF0000" stroke-width="2" stroke-miterlimit="10" d="M286.49,475.47h-4.118v21.574"/>
				<path fill="none" stroke="#00FF00" stroke-width="2" stroke-miterlimit="10" d="M230.496,202.206h-0.248v21.573"/>
				<path fill="none" stroke="#0000FF" stroke-width="2" stroke-miterlimit="10" d="M289,159.058h-4.202V132.09"/>
				<path fill="none" stroke="#00FF00" stroke-width="2" stroke-miterlimit="10" d="M226.097,374.797h-0.214v21.571"/>
				<path fill="none" stroke="#00FF00" stroke-width="2" stroke-miterlimit="10" d="M222.552,350.075h-3.491v48.315"/>
				<path fill="none" stroke="#000000" stroke-width="2" stroke-miterlimit="10" d="M284.798,132.092H46.928v133.149"/>
				<path fill="none" stroke="#00FF00" stroke-width="2" stroke-miterlimit="10" d="M224.532,446.706h-5.474V398.39"/>
				<path fill="none" stroke="#0000FF" stroke-width="2" stroke-miterlimit="10" d="M287.478,130.294h-2.128v-25.169"/>
				<path fill="none" stroke="#000000" stroke-width="2" stroke-miterlimit="10" d="M31,381.143h2.555"/>
				<path fill="none" stroke="#00FF00" stroke-width="2" stroke-miterlimit="10" d="M225.883,396.368h-3.331v-46.293"/>
				<path fill="none" stroke="#00FF00" stroke-width="2" stroke-miterlimit="10" d="M227.222,389.177h-1.125v-14.382"/>
				<path fill="none" stroke="#00FF00" stroke-width="2" stroke-miterlimit="10" d="M230.196,248.949h-0.129v26.967"/>
				<path fill="none" stroke="#000000" stroke-width="2" stroke-miterlimit="10" d="M46.928,265.241H33.555v115.902"/>
			</g>
			<g transform="matrix(1,0,0,1,207.7803,315.4118)">
				<text transform="matrix(1 0 0 1 24.9987 49.0001)" font-family="'Arial-BoldMT'" font-size="12">Th106.11</text>
			</g>
			<g transform="matrix(1,0,0,1,269,459.2353)">
				<text transform="matrix(1 0 0 1 24.9998 48.9998)" font-family="'Arial-BoldMT'" font-size="12">Th061.13</text>
			</g>
			<g transform="matrix(1,0,0,1,211.235,286.6471)">
				<text transform="matrix(1 0 0 1 24.9986 49.0001)" font-family="'Arial-BoldMT'" font-size="12">Th074.13</text>
			</g>
			<g transform="matrix(1,0,0,1,212.0154,142.8235)">
				<text transform="matrix(1 0 0 1 24.9995 49.0005)" font-family="'Arial-BoldMT'" font-size="12">Th196.12</text>
			</g>
			<g transform="matrix(1,0,0,1,268.3724,27.7647)">
				<text transform="matrix(1 0 0 1 24.9999 49.0007)" font-family="'Arial-BoldMT'" font-size="12">Th211.13</text>
			</g>
			<g transform="matrix(1,0,0,1,211.1367,257.8824)">
				<text transform="matrix(1 0 0 1 24.9998 49.0002)" font-family="'Arial-BoldMT'" font-size="12">Th106.09</text>
			</g>
			<g transform="matrix(1,0,0,1,268.6299,56.5294)">
				<text transform="matrix(1 0 0 1 24.9987 49.0006)" font-family="'Arial-BoldMT'" font-size="12">Th246.13</text>
			</g>
			<g transform="matrix(1,0,0,1,269,114.0588)">
				<text transform="matrix(1 0 0 1 24.9998 49.0005)" font-family="'Arial-BoldMT'" font-size="12">Th245.13</text>
			</g>
			<g transform="matrix(1,0,0,1,266.4898,430.4706)">
				<text transform="matrix(1 0 0 1 24.9997 48.9998)" font-family="'Arial-BoldMT'" font-size="12">Th068.12</text>
			</g>
			<g transform="matrix(1,0,0,1,268.4283,-1)">
				<text transform="matrix(1 0 0 1 24.9997 48.9998)" font-family="'Arial-BoldMT'" font-size="12">Th166.12</text>
			</g>
			<g transform="matrix(1,0,0,1,204.5327,401.7059)">
				<text transform="matrix(1 0 0 1 24.9998 48.9999)" font-family="'Arial-BoldMT'" font-size="12">Th086.07</text>
			</g>
			<g transform="matrix(1,0,0,1,267.478,85.2941)">
				<text transform="matrix(1 0 0 1 24.9998 49.0006)" font-family="'Arial-BoldMT'" font-size="12">Th092.13</text>
			</g>
			<g transform="matrix(1,0,0,1,206.5331,372.9412)">
				<text transform="matrix(1 0 0 1 24.9999 49)" font-family="'Arial-BoldMT'" font-size="12">Th134.11</text>
			</g>
			<g transform="matrix(1,0,0,1,207.222,344.1765)">
				<text transform="matrix(1 0 0 1 24.9989 49)" font-family="'Arial-BoldMT'" font-size="12">Th117.11</text>
			</g>
			<g transform="matrix(1,0,0,1,211.088,229.1176)">
				<text transform="matrix(1 0 0 1 24.9992 49.0003)" font-family="'Arial-BoldMT'" font-size="12">Th132.11</text>
			</g>
			<g transform="matrix(1,0,0,1,211.4616,171.5882)">
				<text transform="matrix(1 0 0 1 24.9996 49.0004)" font-family="'Arial-BoldMT'" font-size="12">Th230.12</text>
			</g>
			<g transform="matrix(1,0,0,1,269,488)">
				<text transform="matrix(1 0 0 1 24.9998 48.9998)" font-family="'Arial-BoldMT'" font-size="12">Th095.13</text>
			</g>
			<g transform="matrix(1,0,0,1,211.7827,200.3529)">
				<text transform="matrix(1 0 0 1 24.9998 49.0004)" font-family="'Arial-BoldMT'" font-size="12">Th162.12</text>
			</g>
		</g>
		<path fill="none" stroke="#000000" stroke-miterlimit="10" d="M354.445,44"/>
		<path fill="none" stroke="#000000" stroke-miterlimit="10" d="M354.474,130.294"/>
		<path fill="none" stroke="#000000" stroke-miterlimit="10" d="M354.474,160.067"/>
		<path fill="none" stroke="#000000" stroke-miterlimit="10" d="M354.474,101.529"/>
		<path fill="none" stroke="#000000" stroke-miterlimit="10" d="M353.754,72.764"/>
		<path fill="none" stroke="#000000" stroke-miterlimit="10" d="M295,187.824"/>
		<path fill="none" stroke="#000000" stroke-miterlimit="10" d="M295,216.589"/>
		<path fill="none" stroke="#000000" stroke-miterlimit="10" d="M295,246.236"/>
		<path fill="none" stroke="#000000" stroke-miterlimit="10" d="M295,274.118"/>
		<path fill="none" stroke="#000000" stroke-miterlimit="10" d="M295,302.883"/>
		<path fill="none" stroke="#000000" stroke-miterlimit="10" d="M295,332.573"/>
		<path fill="none" stroke="#000000" stroke-miterlimit="10" d="M295,360.412"/>
		<path fill="none" stroke="#000000" stroke-miterlimit="10" d="M295,389.177"/>
		<path fill="none" stroke="#000000" stroke-miterlimit="10" d="M295,417.941"/>
		<path fill="none" stroke="#000000" stroke-miterlimit="10" d="M295,447.299"/>
		<path fill="none" stroke="#000000" stroke-miterlimit="10" d="M353.724,475.47"/>
		<path fill="none" stroke="#000000" stroke-miterlimit="10" d="M353.695,504.742"/>
		<path fill="none" stroke="#000000" stroke-miterlimit="10" d="M353.695,533.467"/>
	</g>
</g>
<g id="Layer_2_1_">
	<line fill="none" stroke="#000000" stroke-miterlimit="10" x1="374.301" y1="46.695" x2="465.713" y2="46.695"/>
	<line fill="none" stroke="#000000" stroke-miterlimit="10" x1="374.33" y1="162.762" x2="465.686" y2="132.989"/>
	<line fill="none" stroke="#000000" stroke-miterlimit="10" x1="374.301" y1="75.46" x2="465.686" y2="162.762"/>
	<line fill="none" stroke="#000000" stroke-miterlimit="10" x1="374.33" y1="133.998" x2="465.686" y2="104.224"/>
	<line fill="none" stroke="#000000" stroke-miterlimit="10" x1="375.011" y1="105.232" x2="466.367" y2="75.46"/>
	<path fill="none" stroke="#000000" stroke-miterlimit="10" d="M513.258,248.049"/>
	<path fill="none" stroke="#000000" stroke-miterlimit="10" d="M328.117,190.519"/>
	<path fill="none" stroke="#000000" stroke-miterlimit="10" d="M513.258,189.594"/>
	<path fill="none" stroke="#000000" stroke-miterlimit="10" d="M328.117,219.284"/>
	<line fill="none" stroke="#000000" stroke-miterlimit="10" x1="340.432" y1="248.92" x2="529.586" y2="248.885"/>
	<path fill="none" stroke="#000000" stroke-miterlimit="10" d="M513.258,219.284"/>
	<path fill="none" stroke="#000000" stroke-miterlimit="10" d="M328.117,276.813"/>
	<line fill="none" stroke="#000000" stroke-miterlimit="10" x1="337.59" y1="305.578" x2="522.732" y2="335.269"/>
	<line fill="none" stroke="#000000" stroke-miterlimit="10" x1="337.59" y1="335.269" x2="522.732" y2="305.578"/>
	<line fill="none" stroke="#000000" stroke-miterlimit="10" x1="337.59" y1="363.107" x2="522.732" y2="391.873"/>
	<line fill="none" stroke="#000000" stroke-miterlimit="10" x1="337.59" y1="391.873" x2="522.732" y2="363.587"/>
	<line fill="none" stroke="#000000" stroke-miterlimit="10" x1="337.59" y1="420.636" x2="522.732" y2="449.994"/>
	<line fill="none" stroke="#000000" stroke-miterlimit="10" x1="337.59" y1="449.994" x2="522.732" y2="420.636"/>
	<line fill="none" stroke="#000000" stroke-miterlimit="10" x1="383.74" y1="478.166" x2="460.462" y2="478.166"/>
	<line fill="none" stroke="#000000" stroke-miterlimit="10" x1="383.717" y1="507.437" x2="460.439" y2="507.437"/>
	<line fill="none" stroke="#000000" stroke-miterlimit="10" x1="383.717" y1="536.162" x2="460.439" y2="536.162"/>
	<line fill="none" stroke="#000000" stroke-miterlimit="10" x1="340.432" y1="277.796" x2="529.586" y2="277.761"/>
	<line fill="none" stroke="#000000" stroke-miterlimit="10" x1="339.737" y1="220.039" x2="528.892" y2="220.005"/>
	<line fill="none" stroke="#000000" stroke-miterlimit="10" x1="341.435" y1="188.616" x2="528.582" y2="188.582"/>
</g>
<g id="Layer_3">
	<g>
		<g>
			<path fill="none" stroke="#00FF00" stroke-width="2" stroke-miterlimit="10" d="M587.69,334.64v27.979h-0.324"/>
			<path fill="none" stroke="#00FF00" stroke-width="2" stroke-miterlimit="10" d="M592.035,256.117v21.661h-0.727"/>
			<path fill="none" stroke="#0000FF" stroke-width="2" stroke-miterlimit="10" d="M524.849,61.161V46.72h-2.624"/>
			<path fill="none" stroke="#000000" stroke-width="2" stroke-miterlimit="10" d="M525.293,82.823V61.161h-0.444"/>
			<path fill="none" stroke="#00FF00" stroke-width="2" stroke-miterlimit="10" d="M587.365,362.621v27.078h-0.143"/>
			<path fill="none" stroke="#000000" stroke-width="2" stroke-miterlimit="10" d="M806.707,352.636h2.853"/>
			<path fill="none" stroke="#0000FF" stroke-width="2" stroke-miterlimit="10" d="M525.293,82.823v21.661h-3.295"/>
			<path fill="none" stroke="#00FF00" stroke-width="2" stroke-miterlimit="10" d="M595.754,295.379v39.262h-8.064"/>
			<path fill="none" stroke="#000000" stroke-width="2" stroke-miterlimit="10" d="M525.66,108.095V82.823h-0.367"/>
			<path fill="none" stroke="#00FF00" stroke-width="2" stroke-miterlimit="10" d="M587.223,389.699v-25.272h-0.997"/>
			<path fill="none" stroke="#000000" stroke-width="2" stroke-miterlimit="10" d="M526.277,135.172v-27.076h-0.615"/>
			<path fill="none" stroke="#00FF00" stroke-width="2" stroke-miterlimit="10" d="M586.888,436.634v14.44h-1.078"/>
			<path fill="none" stroke="#000000" stroke-width="2" stroke-miterlimit="10" d="M791.781,189.214v-54.042H526.277"/>
			<path fill="none" stroke="#0000FF" stroke-width="2" stroke-miterlimit="10" d="M525.66,108.095v25.271h-2.376"/>
			<path fill="none" stroke="#000000" stroke-width="2" stroke-miterlimit="10" d="M806.707,352.636v163.422H528.987"/>
			<path fill="none" stroke="#00FF00" stroke-width="2" stroke-miterlimit="10" d="M587.223,389.699v25.271h-0.06"/>
			<path fill="none" stroke="#000000" stroke-width="2" stroke-miterlimit="10" d="M806.707,352.636V189.214h-14.927"/>
			<path fill="none" stroke="#00FF00" stroke-width="2" stroke-miterlimit="10" d="M587.163,414.97v21.662h-0.275"/>
			<path fill="none" stroke="#00FF00" stroke-width="2" stroke-miterlimit="10" d="M592.035,256.117v-21.662h-0.237"/>
			<path fill="none" stroke="#0000FF" stroke-width="2" stroke-miterlimit="10" d="M526.277,135.172v27.077h-4.689"/>
			<path fill="none" stroke="#FF0000" stroke-width="2" stroke-miterlimit="10" d="M526.531,527.279v-18.441h-4.943"/>
			<path fill="none" stroke="#FF0000" stroke-width="2" stroke-miterlimit="10" d="M526.531,523.279v14.441h-4.943"/>
			<path fill="none" stroke="#000000" stroke-width="2" stroke-miterlimit="10" d="M791.781,189.214v54.042h-192.13"/>
			<path fill="none" stroke="#00FF00" stroke-width="2" stroke-miterlimit="10" d="M591.798,234.455v14.441h-1.258"/>
			<path fill="none" stroke="#FF0000" stroke-width="2" stroke-miterlimit="10" d="M526.531,527.279h2.456v-21.662"/>
			<path fill="none" stroke="#00FF00" stroke-width="2" stroke-miterlimit="10" d="M586.888,436.634v-14.441h-1.697"/>
			<path fill="none" stroke="#00FF00" stroke-width="2" stroke-miterlimit="10" d="M587.69,334.64v-27.979h-1.627"/>
			<path fill="none" stroke="#00FF00" stroke-width="2" stroke-miterlimit="10" d="M587.365,362.621v-27.075h-1.192"/>
			<path fill="none" stroke="#00FF00" stroke-width="2" stroke-miterlimit="10" d="M591.798,234.455v-14.44h-1.88"/>
			<path fill="none" stroke="#FF0000" stroke-width="2" stroke-miterlimit="10" d="M524.388,483.955h4.599v21.662"/>
			<path fill="none" stroke="#00FF00" stroke-width="2" stroke-miterlimit="10" d="M599.651,243.256v52.123h-3.896"/>
			<path fill="none" stroke="#0000FF" stroke-width="2" stroke-miterlimit="10" d="M524.849,61.161v14.441h-2.562"/>
			<path fill="none" stroke="#00FF00" stroke-width="2" stroke-miterlimit="10" d="M599.651,243.256v-52.124h-6.106"/>
			<path fill="none" stroke="#00FF00" stroke-width="2" stroke-miterlimit="10" d="M595.754,295.379v-39.262h-3.719"/>
			<path fill="none" stroke="#00FF00" stroke-width="2" stroke-miterlimit="10" d="M587.163,414.97v-21.662h-1.714"/>
		</g>
		<g transform="matrix(1,0,0,1,315,114.5294)">
			<text transform="matrix(0.9473 0 0 1 153.1956 51.7213)" font-family="'Arial-BoldMT'" font-size="12">Th245.13</text>
		</g>
		<g transform="matrix(1,0,0,1,241.3956,230.0588)">
			<text transform="matrix(0.9473 0 0 1 297.1496 51.7212)" font-family="'Arial-BoldMT'" font-size="12">Th134.11</text>
		</g>
		<g transform="matrix(1,0,0,1,315,432.2353)">
			<text transform="matrix(0.9473 0 0 1 153.1956 80.6024)" font-family="'Arial-BoldMT'" font-size="12">Th061.13</text>
		</g>
		<g transform="matrix(1,0,0,1,314.3264,-1)">
			<text transform="matrix(0.9473 0 0 1 154.5069 51.7205)" font-family="'Arial-BoldMT'" font-size="12">Th166.12</text>
		</g>
		<g transform="matrix(1,0,0,1,315,461.1176)">
			<text transform="matrix(0.9473 0 0 1 153.1956 80.6028)" font-family="'Arial-BoldMT'" font-size="12">Th095.13</text>
		</g>
		<g transform="matrix(1,0,0,1,242.2073,201.1765)">
			<text transform="matrix(0.9473 0 0 1 296.1963 51.7207)" font-family="'Arial-BoldMT'" font-size="12">Th117.11</text>
		</g>
		<g transform="matrix(1,0,0,1,247.8553,374.4706)">
			<text transform="matrix(0.9473 0 0 1 283.9438 51.7206)" font-family="'Arial-BoldMT'" font-size="12">Th196.12</text>
		</g>
		<g transform="matrix(1,0,0,1,314.564,56.7647)">
			<text transform="matrix(0.9473 0 0 1 154.0437 51.7214)" font-family="'Arial-BoldMT'" font-size="12">Th246.13</text>
		</g>
		<g transform="matrix(1,0,0,1,246.9359,258.9412)">
			<text transform="matrix(0.9473 0 0 1 285.7343 51.7207)" font-family="'Arial-BoldMT'" font-size="12">Th074.13</text>
		</g>
		<g transform="matrix(1,0,0,1,246.82,287.8235)">
			<text transform="matrix(0.9473 0 0 1 285.9595 51.7212)" font-family="'Arial-BoldMT'" font-size="12">Th106.09</text>
		</g>
		<g transform="matrix(1,0,0,1,242.8652,172.2941)">
			<text transform="matrix(0.9473 0 0 1 294.2893 51.7213)" font-family="'Arial-BoldMT'" font-size="12">Th106.11</text>
		</g>
		<g transform="matrix(1,0,0,1,312.0422,490)">
			<text transform="matrix(0.9473 0 0 1 158.9541 -6.0452)" font-family="'Arial-BoldMT'" font-size="12">Th068.12</text>
		</g>
		<g transform="matrix(1,0,0,1,246.7626,316.7059)">
			<text transform="matrix(0.9473 0 0 1 286.6986 51.7196)" font-family="'Arial-BoldMT'" font-size="12">Th132.11</text>
		</g>
		<g transform="matrix(1,0,0,1,314.2605,27.8824)">
			<text transform="matrix(0.9473 0 0 1 155.2612 51.7209)" font-family="'Arial-BoldMT'" font-size="12">Th211.13</text>
		</g>
		<g transform="matrix(1,0,0,1,247.2029,403.3529)">
			<text transform="matrix(0.9473 0 0 1 285.2153 51.7211)" font-family="'Arial-BoldMT'" font-size="12">Th230.12</text>
		</g>
		<g transform="matrix(1,0,0,1,239.0385,143.4118)">
			<text transform="matrix(0.9473 0 0 1 301.1131 51.7208)" font-family="'Arial-BoldMT'" font-size="12">Th086.07</text>
		</g>
		<g transform="matrix(1,0,0,1,313.2067,85.6471)">
			<text transform="matrix(0.9473 0 0 1 156.6861 51.7208)" font-family="'Arial-BoldMT'" font-size="12">Th092.13</text>
		</g>
		<g transform="matrix(1,0,0,1,247.5812,345.5882)">
			<text transform="matrix(0.9473 0 0 1 284.4776 51.7202)" font-family="'Arial-BoldMT'" font-size="12">Th162.12</text>
		</g>
	</g>
</g>
<g id="Layer_4">
	<g>
		<g>
			<path fill="none" stroke="#FF0000" stroke-width="2" stroke-miterlimit="10" d="M309.148,522.439h-2.932v-21.662"/>
			<path fill="none" stroke="#00FF00" stroke-width="2" stroke-miterlimit="10" d="M267.334,190.291h-9.348v52.575"/>
			<path fill="none" stroke="#00FF00" stroke-width="2" stroke-miterlimit="10" d="M269.349,219.173h-2.534v14.441"/>
			<path fill="none" stroke="#00FF00" stroke-width="2" stroke-miterlimit="10" d="M272.762,406.91h-0.194v21.66"/>
			<path fill="none" stroke="#0000FF" stroke-width="2" stroke-miterlimit="10" d="M314.182,45.879h-3.805V60.32"/>
			<path fill="none" stroke="#00FF00" stroke-width="2" stroke-miterlimit="10" d="M263.844,295.441h-5.857v-52.574"/>
			<path fill="none" stroke="#00FF00" stroke-width="2" stroke-miterlimit="10" d="M271.173,335.605h-7.329V295.44"/>
			<path fill="none" stroke="#000000" stroke-width="2" stroke-miterlimit="10" d="M41.878,188.599H29.967v156.088"/>
			<path fill="none" stroke="#00FF00" stroke-width="2" stroke-miterlimit="10" d="M275.823,392.469h-3.062v14.44"/>
			<path fill="none" stroke="#000000" stroke-width="2" stroke-miterlimit="10" d="M306.216,500.777H29.967v-156.09"/>
			<path fill="none" stroke="#00FF00" stroke-width="2" stroke-miterlimit="10" d="M272.149,305.82h-0.977v29.785"/>
			<path fill="none" stroke="#00FF00" stroke-width="2" stroke-miterlimit="10" d="M275.113,421.349h-2.351V406.91"/>
			<path fill="none" stroke="#000000" stroke-width="2" stroke-miterlimit="10" d="M307.57,107.254h-0.737v27.077"/>
			<path fill="none" stroke="#00FF00" stroke-width="2" stroke-miterlimit="10" d="M274.966,334.703h-3.215v30.688"/>
			<path fill="none" stroke="#00FF00" stroke-width="2" stroke-miterlimit="10" d="M271.751,365.39h-0.578v-29.785"/>
			<path fill="none" stroke="#00FF00" stroke-width="2" stroke-miterlimit="10" d="M266.815,233.615h-0.229v21.662"/>
			<path fill="none" stroke="#000000" stroke-width="2" stroke-miterlimit="10" d="M257.987,242.866H41.878v-54.268"/>
			<path fill="none" stroke="#0000FF" stroke-width="2" stroke-miterlimit="10" d="M310.315,161.408h-3.483v-27.077"/>
			<path fill="none" stroke="#0000FF" stroke-width="2" stroke-miterlimit="10" d="M311.427,132.527h-3.858v-25.272"/>
			<path fill="none" stroke="#0000FF" stroke-width="2" stroke-miterlimit="10" d="M310.377,60.321h-1.58v21.662"/>
			<path fill="none" stroke="#FF0000" stroke-width="2" stroke-miterlimit="10" d="M311.182,479.115h-4.967v21.662"/>
			<path fill="none" stroke="#00FF00" stroke-width="2" stroke-miterlimit="10" d="M266.586,255.277h-2.742v40.164"/>
			<path fill="none" stroke="#00FF00" stroke-width="2" stroke-miterlimit="10" d="M277.489,363.587h-5.231v32.491"/>
			<path fill="none" stroke="#00FF00" stroke-width="2" stroke-miterlimit="10" d="M269.569,248.056h-2.754v-14.441"/>
			<path fill="none" stroke="#00FF00" stroke-width="2" stroke-miterlimit="10" d="M272.257,396.078h-0.506V365.39"/>
			<path fill="none" stroke="#FF0000" stroke-width="2" stroke-miterlimit="10" d="M316.028,507.998h-6.88v14.441"/>
			<path fill="none" stroke="#0000FF" stroke-width="2" stroke-miterlimit="10" d="M314.651,103.644h-5.854V81.983"/>
			<path fill="none" stroke="#0000FF" stroke-width="2" stroke-miterlimit="10" d="M316.028,74.762h-5.649V60.321"/>
			<path fill="none" stroke="#00FF00" stroke-width="2" stroke-miterlimit="10" d="M269.124,276.938h-2.539v-21.661"/>
			<path fill="none" stroke="#000000" stroke-width="2" stroke-miterlimit="10" d="M27.107,344.687h2.86"/>
			<path fill="none" stroke="#00FF00" stroke-width="2" stroke-miterlimit="10" d="M276.323,450.232h-3.756V428.57"/>
			<path fill="none" stroke="#000000" stroke-width="2" stroke-miterlimit="10" d="M308.797,81.983h-1.229v25.271"/>
			<path fill="none" stroke="#FF0000" stroke-width="2" stroke-miterlimit="10" d="M314.709,536.88h-5.562V522.44"/>
			<path fill="none" stroke="#000000" stroke-width="2" stroke-miterlimit="10" d="M306.831,134.331H41.878v54.269"/>
			<path fill="none" stroke="#00FF00" stroke-width="2" stroke-miterlimit="10" d="M272.568,428.57h-0.311v-32.492"/>
		</g>
		<g transform="matrix(1,0,0,1,264.597,143.4118)">
			<text transform="matrix(0.9473 0 0 1 7.4741 50.8799)" font-family="'Arial-BoldMT'" font-size="12">Th086.07</text>
		</g>
		<g transform="matrix(1,0,0,1,310.8851,432.2353)">
			<text transform="matrix(0.9473 0 0 1 5.0336 50.8797)" font-family="'Arial-BoldMT'" font-size="12">Th068.12</text>
		</g>
		<g transform="matrix(1,0,0,1,266.7237,172.2941)">
			<text transform="matrix(0.9473 0 0 1 7.361 50.8805)" font-family="'Arial-BoldMT'" font-size="12">Th106.11</text>
		</g>
		<g transform="matrix(1,0,0,1,314.0523,-1)">
			<text transform="matrix(0.9473 0 0 1 4.8664 50.8796)" font-family="'Arial-BoldMT'" font-size="12">Th166.12</text>
		</g>
		<g transform="matrix(1,0,0,1,266.9561,201.1765)">
			<text transform="matrix(0.9473 0 0 1 7.3488 50.8799)" font-family="'Arial-BoldMT'" font-size="12">Th117.11</text>
		</g>
		<g transform="matrix(1,0,0,1,275.3164,316.7059)">
			<text transform="matrix(0.9473 0 0 1 6.908 50.8798)" font-family="'Arial-BoldMT'" font-size="12">Th162.12</text>
		</g>
		<g transform="matrix(1,0,0,1,316,461.1176)">
			<text transform="matrix(0.9473 0 0 1 4.7634 50.8802)" font-family="'Arial-BoldMT'" font-size="12">Th061.13</text>
		</g>
		<g transform="matrix(1,0,0,1,273.5587,345.5882)">
			<text transform="matrix(0.9473 0 0 1 7.0006 50.8803)" font-family="'Arial-BoldMT'" font-size="12">Th132.11</text>
		</g>
		<g transform="matrix(1,0,0,1,316,27.8824)">
			<text transform="matrix(0.9473 0 0 1 4.7634 50.8801)" font-family="'Arial-BoldMT'" font-size="12">Th245.13</text>
		</g>
		<g transform="matrix(1,0,0,1,314.5469,56.7647)">
			<text transform="matrix(0.9473 0 0 1 4.8401 50.8806)" font-family="'Arial-BoldMT'" font-size="12">Th211.13</text>
		</g>
		<g transform="matrix(1,0,0,1,269.6796,258.9412)">
			<text transform="matrix(0.9473 0 0 1 7.2059 50.8789)" font-family="'Arial-BoldMT'" font-size="12">Th106.09</text>
		</g>
		<g transform="matrix(1,0,0,1,272.808,374.4706)">
			<text transform="matrix(0.9473 0 0 1 7.0409 50.8788)" font-family="'Arial-BoldMT'" font-size="12">Th230.12</text>
		</g>
		<g transform="matrix(1,0,0,1,272.6531,287.8235)">
			<text transform="matrix(0.9473 0 0 1 7.0488 50.8794)" font-family="'Arial-BoldMT'" font-size="12">Th074.13</text>
		</g>
		<g transform="matrix(1,0,0,1,266.4861,230.0588)">
			<text transform="matrix(0.9473 0 0 1 7.3745 50.8804)" font-family="'Arial-BoldMT'" font-size="12">Th134.11</text>
		</g>
		<g transform="matrix(1,0,0,1,274.086,403.3529)">
			<text transform="matrix(0.9473 0 0 1 6.9728 50.8793)" font-family="'Arial-BoldMT'" font-size="12">Th196.12</text>
		</g>
		<g transform="matrix(1,0,0,1,311.1438,85.6471)">
			<text transform="matrix(0.9473 0 0 1 5.0195 50.88)" font-family="'Arial-BoldMT'" font-size="12">Th246.13</text>
		</g>
		<g transform="matrix(1,0,0,1,309.9701,114.5294)">
			<text transform="matrix(0.9473 0 0 1 5.0814 50.8805)" font-family="'Arial-BoldMT'" font-size="12">Th092.13</text>
		</g>
		<g transform="matrix(1,0,0,1,314.6087,490)">
			<text transform="matrix(0.9473 0 0 1 4.8369 50.8787)" font-family="'Arial-BoldMT'" font-size="12">Th095.13</text>
		</g>
	</g>
</g>
</svg>
