<?xml version="1.0" encoding="utf-8"?>
<!-- Generator: Adobe Illustrator 15.0.0, SVG Export Plug-In . SVG Version: 6.00 Build 0)  -->
<!DOCTYPE svg PUBLIC "-//W3C//DTD SVG 1.1//EN" "http://www.w3.org/Graphics/SVG/1.1/DTD/svg11.dtd">
<svg version="1.1" id="Layer_1" xmlns="http://www.w3.org/2000/svg" xmlns:xlink="http://www.w3.org/1999/xlink" x="0px" y="0px"
	 width="575.082px" height="865.078px" viewBox="0 0 575.082 865.078" enable-background="new 0 0 575.082 865.078"
	 xml:space="preserve">
<g>
	<g>
		<path fill="none" stroke="#00FF11" stroke-width="3" stroke-miterlimit="10" d="M401.142,631.083h-150.53V525.592"/>
		<path fill="none" stroke="#00FF11" stroke-width="3" stroke-miterlimit="10" d="M451.318,664.396h-50.177v-33.313"/>
		<path fill="none" stroke="#000500" stroke-width="3" stroke-miterlimit="10" d="M401.142,742.127H24.818v-227.64"/>
		<path fill="none" stroke="#00FF11" stroke-width="3" stroke-miterlimit="10" d="M451.318,486.725H426.23v22.209"/>
		<path fill="none" stroke="#00FF11" stroke-width="3" stroke-miterlimit="10" d="M451.318,442.308h-50.177v33.312"/>
		<path fill="none" stroke="#00FF11" stroke-width="3" stroke-miterlimit="10" d="M426.23,597.77h-25.088v33.312"/>
		<path fill="none" stroke="#00FF11" stroke-width="3" stroke-miterlimit="10" d="M451.318,575.561H426.23v22.209"/>
		<path fill="none" stroke="#00FF11" stroke-width="3" stroke-miterlimit="10" d="M250.612,525.592h-25.089V395.114"/>
		<path fill="none" stroke="#0008FF" stroke-width="3" stroke-miterlimit="10" d="M451.318,175.802h-75.265v-38.865"/>
		<path fill="none" stroke="#000500" stroke-width="3" stroke-miterlimit="10" d="M225.523,395.114h-125.44V286.846"/>
		<path fill="none" stroke="#000000" stroke-width="3" stroke-miterlimit="10" d="M20.553,514.486h4.265"/>
		<path fill="none" stroke="#0008FF" stroke-width="3" stroke-miterlimit="10" d="M451.318,220.22H350.966v-41.643"/>
		<path fill="none" stroke="#00FF11" stroke-width="3" stroke-miterlimit="10" d="M325.878,420.099h-75.266v105.49"/>
		<path fill="none" stroke="#0008FF" stroke-width="3" stroke-miterlimit="10" d="M426.23,64.758h-25.088v33.313"/>
		<path fill="none" stroke="#00FF11" stroke-width="3" stroke-miterlimit="10" d="M451.318,531.144H426.23v-22.209"/>
		<path fill="none" stroke="#FF0004" stroke-width="3" stroke-miterlimit="10" d="M451.318,708.814h-50.177v33.312"/>
		<path fill="none" stroke="#FF0004" stroke-width="3" stroke-miterlimit="10" d="M426.23,775.44h-25.088v-33.313"/>
		<path fill="none" stroke="#000500" stroke-width="3" stroke-miterlimit="10" d="M350.966,178.578H100.083v108.269"/>
		<path fill="none" stroke="#0008FF" stroke-width="3" stroke-miterlimit="10" d="M376.054,136.937h-25.088v41.642"/>
		<path fill="none" stroke="#00FF11" stroke-width="3" stroke-miterlimit="10" d="M401.142,364.577h-75.265v55.522"/>
		<path fill="none" stroke="#0008FF" stroke-width="3" stroke-miterlimit="10" d="M451.318,131.385h-50.177V98.071"/>
		<path fill="none" stroke="#FF0004" stroke-width="3" stroke-miterlimit="10" d="M451.318,797.649H426.23V775.44"/>
		<path fill="none" stroke="#0008FF" stroke-width="3" stroke-miterlimit="10" d="M401.142,98.071h-25.088v38.865"/>
		<path fill="none" stroke="#00FF11" stroke-width="3" stroke-miterlimit="10" d="M451.318,353.473H426.23v-22.209"/>
		<path fill="none" stroke="#0008FF" stroke-width="3" stroke-miterlimit="10" d="M451.318,42.549H426.23v22.209"/>
		<path fill="none" stroke="#00FF11" stroke-width="3" stroke-miterlimit="10" d="M426.23,331.264h-25.088v33.312"/>
		<path fill="none" stroke="#000500" stroke-width="3" stroke-miterlimit="10" d="M100.083,286.846H24.818v227.64"/>
		<path fill="none" stroke="#00FF11" stroke-width="3" stroke-miterlimit="10" d="M451.318,309.055H426.23v22.209"/>
		<path fill="none" stroke="#00FF11" stroke-width="3" stroke-miterlimit="10" d="M426.23,508.935h-25.088v-33.313"/>
		<path fill="none" stroke="#FF0004" stroke-width="3" stroke-miterlimit="10" d="M451.318,753.231H426.23v22.209"/>
		<path fill="none" stroke="#00FF11" stroke-width="3" stroke-miterlimit="10" d="M401.142,475.621h-75.265v-55.521"/>
		<path fill="none" stroke="#00FF11" stroke-width="3" stroke-miterlimit="10" d="M451.318,619.978H426.23V597.77"/>
		<path fill="none" stroke="#0008FF" stroke-width="3" stroke-miterlimit="10" d="M451.318,86.968H426.23V64.759"/>
		<path fill="none" stroke="#00FF11" stroke-width="3" stroke-miterlimit="10" d="M451.318,397.89h-50.177v-33.313"/>
		<path fill="none" stroke="#00FF11" stroke-width="3" stroke-miterlimit="10" d="M451.318,264.637H225.523v130.477"/>
	</g>
	<g transform="matrix(1,0,0,1,933,688.4412)">
		<text transform="matrix(1 0 0 1 -477.1819 -16.3946)" font-family="'AbadiMT-CondensedExtraBold'" font-size="21.6">Th134.11</text>
	</g>
	<g transform="matrix(1,0,0,1,933,96.2059)">
		<text transform="matrix(1 0 0 1 -477.1819 42.829)" font-family="'AbadiMT-CondensedExtraBold'" font-size="21.6">Th245.13</text>
	</g>
	<g transform="matrix(1,0,0,1,933,491.0294)">
		<text transform="matrix(1 0 0 1 -477.1819 3.3473)" font-family="'AbadiMT-CondensedExtraBold'" font-size="21.6">Th162.12</text>
	</g>
	<g transform="matrix(1,0,0,1,933,441.6765)">
		<text transform="matrix(1 0 0 1 -477.1819 8.2822)" font-family="'AbadiMT-CondensedExtraBold'" font-size="21.6">Th132.11</text>
	</g>
	<g transform="matrix(1,0,0,1,933,836.5)">
		<text transform="matrix(1 0 0 1 -477.1819 -31.2004)" font-family="'AbadiMT-CondensedExtraBold'" font-size="21.6">Th095.13</text>
	</g>
	<g transform="matrix(1,0,0,1,933,342.9706)">
		<text transform="matrix(1 0 0 1 -477.1819 18.1522)" font-family="'AbadiMT-CondensedExtraBold'" font-size="21.6">Th230.12</text>
	</g>
	<g transform="matrix(1,0,0,1,933,589.7353)">
		<text transform="matrix(1 0 0 1 -477.1819 -6.5246)" font-family="'AbadiMT-CondensedExtraBold'" font-size="21.6">Th106.11</text>
	</g>
	<g transform="matrix(1,0,0,1,933,-2.5)">
		<text transform="matrix(1 0 0 1 -477.1819 52.699)" font-family="'AbadiMT-CondensedExtraBold'" font-size="21.6">Th166.12</text>
	</g>
	<g transform="matrix(1,0,0,1,933,145.5588)">
		<text transform="matrix(1 0 0 1 -477.1819 37.894)" font-family="'AbadiMT-CondensedExtraBold'" font-size="21.6">Th211.13</text>
	</g>
	<g transform="matrix(1,0,0,1,933,293.6176)">
		<text transform="matrix(1 0 0 1 -477.1819 23.0872)" font-family="'AbadiMT-CondensedExtraBold'" font-size="21.6">Th106.09</text>
	</g>
	<g transform="matrix(1,0,0,1,933,787.1471)">
		<text transform="matrix(1 0 0 1 -477.1819 -26.2645)" font-family="'AbadiMT-CondensedExtraBold'" font-size="21.6">Th061.13</text>
	</g>
	<g transform="matrix(1,0,0,1,933,194.9118)">
		<text transform="matrix(1 0 0 1 -477.1819 32.9581)" font-family="'AbadiMT-CondensedExtraBold'" font-size="21.6">Th092.13</text>
	</g>
	<g transform="matrix(1,0,0,1,933,46.8529)">
		<text transform="matrix(1 0 0 1 -477.1819 47.764)" font-family="'AbadiMT-CondensedExtraBold'" font-size="21.6">Th246.13</text>
	</g>
	<g transform="matrix(1,0,0,1,933,639.0882)">
		<text transform="matrix(1 0 0 1 -477.1819 -11.4595)" font-family="'AbadiMT-CondensedExtraBold'" font-size="21.6">Th117.11</text>
	</g>
	<g transform="matrix(1,0,0,1,933,392.3235)">
		<text transform="matrix(1 0 0 1 -477.1819 13.2163)" font-family="'AbadiMT-CondensedExtraBold'" font-size="21.6">Th074.13</text>
	</g>
	<g transform="matrix(1,0,0,1,933,540.3824)">
		<text transform="matrix(1 0 0 1 -477.1819 -1.5877)" font-family="'AbadiMT-CondensedExtraBold'" font-size="21.6">Th196.12</text>
	</g>
	<g transform="matrix(1,0,0,1,933,737.7941)">
		<text transform="matrix(1 0 0 1 -477.1819 -21.3295)" font-family="'AbadiMT-CondensedExtraBold'" font-size="21.6">Th068.12</text>
	</g>
	<g transform="matrix(1,0,0,1,933,244.2647)">
		<text transform="matrix(1 0 0 1 -477.1819 28.0231)" font-family="'AbadiMT-CondensedExtraBold'" font-size="21.6">Th086.07</text>
	</g>
</g>
</svg>
