<?xml version="1.0" encoding="UTF-8" standalone="no"?>
<!DOCTYPE svg PUBLIC "-//W3C//DTD SVG 1.1//EN" "http://www.w3.org/Graphics/SVG/1.1/DTD/svg11.dtd">
<svg
   xmlns:svg="http://www.w3.org/2000/svg"
   xmlns="http://www.w3.org/2000/svg"
   xmlns:xlink="http://www.w3.org/1999/xlink"
   version="1.1"
   baseProfile="full"
   id="body"
   width="800px"
   height="800px"
   viewBox="0 0 1000 1000"
   preserveAspectRatio="none">
  <defs>
    <style type="text/css"><![CDATA[
      circle{ stroke: none; }
      polygon{ stroke: black; stroke-width: 2px; fill: none; }
      line{ stroke: black; stroke-width: 2px; }
      text{ font-size:50px; }
    ]]></style>
  </defs>
  <title
     id="title1">SVG drawing</title>
<g transform="scale(0.45)"><g transform="translate(600,1050)">
  <g id="fig1">
	<polygon points="0.0,-0.0 1000.0,-0.0 500,-866.0254038" />
    <circle cx="516.9762498601" cy="-456.8126260100" r="2" />
    <circle cx="611.8540459578" cy="-240.8518143165" r="2" />
    <circle cx="117.2469171742" cy="-45.3307048618" r="2" />
    <circle cx="473.9947410796" cy="-783.2235786169" r="2" />
    <circle cx="999.9880413887" cy="-0.0066073759" r="2" />
    <circle cx="465.6707515088" cy="-278.7424318538" r="2" />
    <circle cx="987.7984367662" cy="-0.0166131577" r="2" />
    <circle cx="883.4434741172" cy="-197.8027312177" r="2" />
    <circle cx="499.9908313097" cy="-866.0092834824" r="2" />
    <circle cx="513.8411116627" cy="-404.4988313396" r="2" />
    <circle cx="747.4889982884" cy="-128.5950032975" r="2" />
    <circle cx="243.4759344593" cy="-375.0636047622" r="2" />
    <circle cx="519.2538940584" cy="-418.6005958617" r="2" />
    <circle cx="996.5182352594" cy="-0.0259261479" r="2" />
    <circle cx="465.5881791031" cy="-769.1543718928" r="2" />
    <circle cx="845.7011253424" cy="-212.5852642669" r="2" />
    <circle cx="32.9022040476" cy="-10.4034569611" r="2" />
    <circle cx="115.1447478019" cy="-26.9042336385" r="2" />
    <circle cx="0.0000754925" cy="-0.0000641243" r="2" />
    <circle cx="516.0679813822" cy="-444.1956555549" r="2" />
    <circle cx="515.4164327460" cy="-413.5436974643" r="2" />
    <circle cx="737.4706147959" cy="-144.8976892797" r="2" />
    <circle cx="803.2142423093" cy="-104.8580796345" r="2" />
    <circle cx="0.0000734075" cy="-0.0000320682" r="2" />
    <circle cx="417.1565602664" cy="-360.9839410341" r="2" />
    <circle cx="441.4017959612" cy="-228.7876127275" r="2" />
    <circle cx="521.2549222210" cy="-621.6791431624" r="2" />
    <circle cx="434.0667249800" cy="-523.7898733871" r="2" />
    <circle cx="735.8829751965" cy="-44.3021653667" r="2" />
    <circle cx="0.0002362972" cy="-0.0001574610" r="2" />
    <circle cx="75.0805620062" cy="-105.1201370248" r="2" />
    <circle cx="532.4626606426" cy="-287.6077917888" r="2" />
    <circle cx="671.4463735099" cy="-35.5298654365" r="2" />
    <circle cx="593.0463096814" cy="-74.2987901433" r="2" />
    <circle cx="156.6137784087" cy="-107.1512177771" r="2" />
    <circle cx="1000.0000000000" cy="-0.0000000000" r="2" />
    <circle cx="500.0000000000" cy="-866.0254038000" r="2" />
    <circle cx="1000.0000000000" cy="-0.0000000000" r="2" />
    <circle cx="655.4550161136" cy="-219.4377084908" r="2" />
    <circle cx="0.0000000000" cy="-0.0000000000" r="2" />
    <circle cx="500.0000000000" cy="-866.0254038000" r="2" />
    <circle cx="404.0475544036" cy="-216.9177406498" r="2" />
    <circle cx="0.0000000000" cy="-0.0000000000" r="2" />
    <circle cx="882.8717685826" cy="-45.0542071106" r="2" />
    <circle cx="916.7152496617" cy="-18.4849779780" r="2" />
    <circle cx="1000.0000000000" cy="-0.0000000000" r="2" />
    <circle cx="0.0000000000" cy="-0.0000000000" r="2" />
    <circle cx="508.1290144228" cy="-324.3799883754" r="2" />
    <circle cx="500.0000000000" cy="-866.0254038000" r="2" />
    <circle cx="12.0352639731" cy="-0.0159809346" r="2" />
    <circle cx="387.5388611973" cy="-667.2261350866" r="2" />
    <circle cx="500.0000000000" cy="-866.0254038000" r="2" />
    <circle cx="594.5224830030" cy="-217.7902719831" r="2" />
    <circle cx="515.0364108381" cy="-584.6760772016" r="2" />
    <circle cx="603.6124944600" cy="-206.1098299509" r="2" />
    <circle cx="0.0000000000" cy="-0.0000000000" r="2" />
    <circle cx="500.0000000000" cy="-866.0254038000" r="2" />
    <circle cx="156.2352547605" cy="-215.3491154287" r="2" />
    <circle cx="1000.0000000000" cy="-0.0000000000" r="2" />
    <circle cx="25.0821150175" cy="-23.1818654663" r="2" />
    <circle cx="886.0515268233" cy="-26.4099446033" r="2" />
    <circle cx="500.0000000000" cy="-866.0254038000" r="2" />
    <circle cx="640.7321225326" cy="-225.6236891588" r="2" />
    <circle cx="485.0974930116" cy="-413.7289772145" r="2" />
    <circle cx="507.7616531589" cy="-644.6880227447" r="2" />
    <circle cx="500.0000000000" cy="-866.0254038000" r="2" />
    <circle cx="418.9036240068" cy="-267.4198387844" r="2" />
    <circle cx="478.5753945216" cy="-622.5750936515" r="2" />
    <circle cx="406.4674002345" cy="-615.6663053213" r="2" />
    <circle cx="484.8810177148" cy="-316.7221162127" r="2" />
    <circle cx="1000.0000000000" cy="-0.0000000000" r="2" />
    <circle cx="500.0000000000" cy="-866.0254038000" r="2" />
    <circle cx="1000.0000000000" cy="-0.0000000000" r="2" />
    <circle cx="637.6795026555" cy="-188.6968989450" r="2" />
    <circle cx="0.0000000000" cy="-0.0000000000" r="2" />
    <circle cx="500.0000000000" cy="-866.0254038000" r="2" />
    <circle cx="403.9972698695" cy="-216.8891888905" r="2" />
    <circle cx="1000.0000000000" cy="-0.0000000000" r="2" />
    <circle cx="882.8415543436" cy="-45.0750306477" r="2" />
    <circle cx="57.6768809154" cy="-62.9054481966" r="2" />
    <circle cx="500.0000000000" cy="-866.0254038000" r="2" />
    <circle cx="1000.0000000000" cy="-0.0000000000" r="2" />
    <circle cx="464.9742432679" cy="-277.8295423645" r="2" />
    <circle cx="1000.0000000000" cy="-0.0000000000" r="2" />
    <circle cx="505.9990911674" cy="-855.6027360414" r="2" />
    <circle cx="228.5434248785" cy="-2.0060472705" r="2" />
    <circle cx="1000.0000000000" cy="-0.0000000000" r="2" />
    <circle cx="594.4988527060" cy="-217.7884314410" r="2" />
    <circle cx="764.0196028849" cy="-153.6230270232" r="2" />
    <circle cx="623.2839121928" cy="-240.2749237284" r="2" />
    <circle cx="0.0000000000" cy="-0.0000000000" r="2" />
    <circle cx="1000.0000000000" cy="-0.0000000000" r="2" />
    <circle cx="391.6374478260" cy="-623.0944821536" r="2" />
    <circle cx="0.0000000000" cy="-0.0000000000" r="2" />
    <circle cx="507.5285692233" cy="-832.7194028687" r="2" />
    <circle cx="114.0065859028" cy="-26.4278873618" r="2" />
    <circle cx="1000.0000000000" cy="-0.0000000000" r="2" />
    <circle cx="515.7753469720" cy="-442.1463494363" r="2" />
    <circle cx="615.7433635464" cy="-239.0327766437" r="2" />
    <circle cx="812.1511831472" cy="-117.4255645376" r="2" />
    <circle cx="0.0000000000" cy="-0.0000000000" r="2" />
    <circle cx="522.1324007232" cy="-369.5101171743" r="2" />
    <circle cx="221.4048644699" cy="-103.0927560367" r="2" />
    <circle cx="263.6821330801" cy="-44.1912469005" r="2" />
    <circle cx="483.3464721684" cy="-261.5629533860" r="2" />
    <circle cx="0.0000000000" cy="-0.0000000000" r="2" />
    <circle cx="500.0000000000" cy="-866.0254038000" r="2" />
    <circle cx="500.0000000000" cy="-866.0254038000" r="2" />
    <circle cx="500.0000000000" cy="-866.0254038000" r="2" />
    <circle cx="500.0000000000" cy="-866.0254038000" r="2" />
    <circle cx="1000.0000000000" cy="-0.0000000000" r="2" />
    <circle cx="0.0000000000" cy="-0.0000000000" r="2" />
    <circle cx="0.0000000000" cy="-0.0000000000" r="2" />
    <circle cx="500.0000000000" cy="-866.0254038000" r="2" />
    <circle cx="1000.0000000000" cy="-0.0000000000" r="2" />
    <circle cx="500.0000000000" cy="-866.0254038000" r="2" />
    <circle cx="1000.0000000000" cy="-0.0000000000" r="2" />
    <circle cx="500.0000000000" cy="-866.0254038000" r="2" />
    <circle cx="1000.0000000000" cy="-0.0000000000" r="2" />
    <circle cx="0.0000000000" cy="-0.0000000000" r="2" />
    <circle cx="0.0000000000" cy="-0.0000000000" r="2" />
    <circle cx="1000.0000000000" cy="-0.0000000000" r="2" />
    <circle cx="0.0000000000" cy="-0.0000000000" r="2" />
    <circle cx="0.0000000000" cy="-0.0000000000" r="2" />
    <circle cx="0.0000000000" cy="-0.0000000000" r="2" />
    <circle cx="1000.0000000000" cy="-0.0000000000" r="2" />
    <circle cx="1000.0000000000" cy="-0.0000000000" r="2" />
    <circle cx="1000.0000000000" cy="-0.0000000000" r="2" />
    <circle cx="1000.0000000000" cy="-0.0000000000" r="2" />
    <circle cx="482.3877529099" cy="-457.4635007349" r="2" />
    <circle cx="500.0000000000" cy="-866.0254038000" r="2" />
    <circle cx="1000.0000000000" cy="-0.0000000000" r="2" />
    <circle cx="596.3551697232" cy="-216.5567689121" r="2" />
    <circle cx="0.0000000000" cy="-0.0000000000" r="2" />
    <circle cx="519.5423027218" cy="-741.8111329291" r="2" />
    <circle cx="942.3537495297" cy="-62.8795505634" r="2" />
    <circle cx="500.0000000000" cy="-866.0254038000" r="2" />
    <circle cx="1000.0000000000" cy="-0.0000000000" r="2" />
    <circle cx="535.0100734255" cy="-277.9081889078" r="2" />
    <circle cx="0.0000000000" cy="-0.0000000000" r="2" />
    <circle cx="12.0475204664" cy="-0.0160396182" r="2" />
    <circle cx="115.9962756801" cy="-196.9020904329" r="2" />
    <circle cx="1000.0000000000" cy="-0.0000000000" r="2" />
    <circle cx="391.5978042834" cy="-242.3861054558" r="2" />
    <circle cx="250.9649674750" cy="-127.5061503134" r="2" />
    <circle cx="480.2628963037" cy="-419.6588466729" r="2" />
    <circle cx="1000.0000000000" cy="-0.0000000000" r="2" />
    <circle cx="1000.0000000000" cy="-0.0000000000" r="2" />
    <circle cx="263.9943982932" cy="-27.5279429178" r="2" />
    <circle cx="500.0000000000" cy="-866.0254038000" r="2" />
    <circle cx="967.3218658896" cy="-10.1724434585" r="2" />
    <circle cx="886.0574520330" cy="-26.4078531419" r="2" />
    <circle cx="0.0000000000" cy="-0.0000000000" r="2" />
    <circle cx="358.8321059977" cy="-225.4633676405" r="2" />
    <circle cx="514.9008880290" cy="-413.7294490415" r="2" />
    <circle cx="187.7951876688" cy="-117.3865182053" r="2" />
    <circle cx="500.0000000000" cy="-866.0254038000" r="2" />
    <circle cx="522.1837293390" cy="-369.4772857990" r="2" />
    <circle cx="221.3060799386" cy="-103.0382695599" r="2" />
    <circle cx="829.9158034321" cy="-206.2455548186" r="2" />
    <circle cx="483.3711470497" cy="-261.5418333843" r="2" />
    <circle cx="1000.0000000000" cy="-0.0000000000" r="2" />
    <circle cx="1000.0000000000" cy="-0.0000000000" r="2" />
    <circle cx="0.0000000000" cy="-0.0000000000" r="2" />
    <circle cx="500.0000000000" cy="-866.0254038000" r="2" />
    <circle cx="0.0000000000" cy="-0.0000000000" r="2" />
    <circle cx="0.0000000000" cy="-0.0000000000" r="2" />
    <circle cx="500.0000000000" cy="-866.0254038000" r="2" />
    <circle cx="1000.0000000000" cy="-0.0000000000" r="2" />
    <circle cx="500.0000000000" cy="-866.0254038000" r="2" />
    <circle cx="1000.0000000000" cy="-0.0000000000" r="2" />
    <circle cx="1000.0000000000" cy="-0.0000000000" r="2" />
    <circle cx="500.0000000000" cy="-866.0254038000" r="2" />
    <circle cx="500.0000000000" cy="-866.0254038000" r="2" />
    <circle cx="0.0000000000" cy="-0.0000000000" r="2" />
    <circle cx="0.0000000000" cy="-0.0000000000" r="2" />
    <circle cx="500.0000000000" cy="-866.0254038000" r="2" />
    <circle cx="0.0000000000" cy="-0.0000000000" r="2" />
    <circle cx="500.0000000000" cy="-866.0254038000" r="2" />
    <circle cx="500.0000000000" cy="-866.0254038000" r="2" />
    <circle cx="0.0000000000" cy="-0.0000000000" r="2" />
    <circle cx="1000.0000000000" cy="-0.0000000000" r="2" />
    <circle cx="1000.0000000000" cy="-0.0000000000" r="2" />
    <circle cx="500.0000000000" cy="-866.0254038000" r="2" />
    <circle cx="500.0000000000" cy="-866.0254038000" r="2" />
    <circle cx="500.0000000000" cy="-866.0254038000" r="2" />
    <circle cx="1000.0000000000" cy="-0.0000000000" r="2" />
    <circle cx="500.0000000000" cy="-866.0254038000" r="2" />
    <circle cx="1000.0000000000" cy="-0.0000000000" r="2" />
    <circle cx="0.0000000000" cy="-0.0000000000" r="2" />
    <circle cx="500.0000000000" cy="-866.0254038000" r="2" />
    <circle cx="500.0000000000" cy="-866.0254038000" r="2" />
    <circle cx="500.0000000000" cy="-866.0254038000" r="2" />
    <circle cx="0.0000000000" cy="-0.0000000000" r="2" />
    <circle cx="1000.0000000000" cy="-0.0000000000" r="2" />
    <circle cx="500.0000000000" cy="-866.0254038000" r="2" />
    <circle cx="1000.0000000000" cy="-0.0000000000" r="2" />
    <circle cx="500.0000000000" cy="-866.0254038000" r="2" />
    <circle cx="1000.0000000000" cy="-0.0000000000" r="2" />
    <circle cx="500.0000000000" cy="-866.0254038000" r="2" />
    <circle cx="0.0000000000" cy="-0.0000000000" r="2" />
    <circle cx="1000.0000000000" cy="-0.0000000000" r="2" />
    <circle cx="500.0000000000" cy="-866.0254038000" r="2" />
    <circle cx="982.6362316045" cy="-8.5778356621" r="2" />
    <circle cx="554.5043975461" cy="-403.6988598505" r="2" />
    <circle cx="557.3492948887" cy="-399.7577503196" r="2" />
    <circle cx="432.3962267192" cy="-183.7785243352" r="2" />
    <circle cx="375.2963175823" cy="-282.7229108369" r="2" />
    <circle cx="373.8830963788" cy="-281.0484985340" r="2" />
    <circle cx="557.3354847403" cy="-399.7886885976" r="2" />
  </g>
  <g id="fig2" transform="translate(-550.0,1000)">
	<polygon points="0.0,-0.0 1000.0,-0.0 500.0,-866.0254038" />
	<line
	   id="line2-1"
	   y2="-0.0"
	   x2="500"
	   y1="-288.6751346"
	   x1="500" />
	<line
	   id="line2-2"
	   y2="-433.0127019"
	   x2="250"
	   y1="-288.6751346"
	   x1="500" />
	<line
	   id="line2-3"
	   y2="-433.0127019"
	   x2="750"
	   y1="-288.6751346"
	   x1="500" />
	<text
	   x="440"
	   y="-500"
	   id="up_2">34.3%</text>
	<text
	   x="250"
	   y="-150"
	   id="down_left_2">31.0%</text>
	<text
	   x="630"
	   y="-150"
	   id="down_right_2">34.8%</text>
  </g>
  <g id="fig3" transform="translate(550,1000)">
	<polygon points="0.0,-0.0 1000.0,-0.0 500.0,-866.0254038" />
	<polygon id="triangle3b" points="250,-144.3375673 750,-144.3375673 500,-577.3502692" />
	<line
	   id="line3-1"
	   x1="125"
	   y1="-216.5063509"
	   x2="250"
	   y2="-144.3375673" />
	<line
	   id="line3-2"
	   x1="375"
	   y1="-649.5190528"
	   x2="500"
	   y2="-577.3502692" />
	<line
	   id="line3-3"
	   x1="625"
	   y1="-649.5190528"
	   x2="500"
	   y2="-577.3502692" />
	<line
	   id="line3-4"
	   x1="875"
	   y1="-216.5063509"
	   x2="750"
	   y2="-144.3375673" />
	<line
	   id="line3-5"
	   x1="750"
	   y1="-0.0"
	   x2="750"
	   y2="-144.3375673" />
	<line
	   id="line3-6"
	   x1="250"
	   y1="-0.0"
	   x2="250"
	   y2="-144.3375673" />
	<text
	   x="500"
	   y="-660"
	   text-anchor="middle"
	   id="up_3">23.8%</text>
	<text
	   y="-50"
	   x="70"
	   id="down_left_3">22.4%</text>
	<text
	   y="-50"
	   x="770"
	   id="down_right_3">25.2%</text>
	<text
	   x="500"
	   y="-50"
	   text-anchor="middle"
	   id="down_side_3">3.3%</text>
	<text
	   x="500"
	   y="-280"
	   text-anchor="middle"
	   id="center_3">21.0%</text>
	<text
	   x="685.0"
	   y="-390.8439"
	   text-anchor="middle"
	   transform="rotate(60,665.0,-380.8439)"
	   id="right_side_3">1.9%</text>
	<text
	   x="315.0"
	   y="-390.8439"
	   text-anchor="middle"
	   transform="rotate(-60,335.0,-380.8439)"
	   id="left_side_3">2.4%</text>
  </g>
</g></g>
</svg>
