<?xml version="1.0" encoding="UTF-8" standalone="no"?>
<!DOCTYPE svg PUBLIC "-//W3C//DTD SVG 1.1//EN" "http://www.w3.org/Graphics/SVG/1.1/DTD/svg11.dtd">
<svg
   xmlns:svg="http://www.w3.org/2000/svg"
   xmlns="http://www.w3.org/2000/svg"
   xmlns:xlink="http://www.w3.org/1999/xlink"
   version="1.1"
   baseProfile="full"
   id="body"
   width="800px"
   height="800px"
   viewBox="0 0 1000 1000"
   preserveAspectRatio="none">
  <defs>
    <style type="text/css"><![CDATA[
      circle{ stroke: none; }
      polygon{ stroke: black; stroke-width: 2px; fill: none; }
      line{ stroke: black; stroke-width: 2px; }
      text{ font-size:50px; }
    ]]></style>
  </defs>
  <title
     id="title1">SVG drawing</title>
<g transform="scale(0.45)"><g transform="translate(600,1050)">
  <g id="fig1">
	<polygon points="0.0,-0.0 1000.0,-0.0 500,-866.0254038" />
    <circle cx="526.3786551076" cy="-234.4446222537" r="2" />
    <circle cx="241.8244154977" cy="-157.2614245787" r="2" />
    <circle cx="535.3906878578" cy="-299.1526737709" r="2" />
    <circle cx="983.6065223296" cy="-7.9133144408" r="2" />
    <circle cx="0.1223410463" cy="-0.0731723597" r="2" />
    <circle cx="482.4060301366" cy="-573.0213203365" r="2" />
    <circle cx="501.2796974923" cy="-286.7543258233" r="2" />
    <circle cx="29.6472827761" cy="-16.3082116012" r="2" />
    <circle cx="0.1164848963" cy="-0.0634288763" r="2" />
    <circle cx="334.3126450258" cy="-195.3756653717" r="2" />
    <circle cx="479.6846511137" cy="-281.9780597745" r="2" />
    <circle cx="535.2757704099" cy="-297.0420283996" r="2" />
    <circle cx="955.4125913047" cy="-23.6979886324" r="2" />
    <circle cx="499.9968384020" cy="-865.2202365352" r="2" />
    <circle cx="578.3499466998" cy="-318.9087959037" r="2" />
    <circle cx="536.1854321554" cy="-701.7043492189" r="2" />
    <circle cx="343.4799162429" cy="-296.3275333209" r="2" />
    <circle cx="502.9449445904" cy="-860.0449361535" r="2" />
    <circle cx="0.0015173393" cy="-0.0006142353" r="2" />
    <circle cx="716.3945319060" cy="-192.9601955360" r="2" />
    <circle cx="467.0043085129" cy="-263.1065825831" r="2" />
    <circle cx="464.1001714286" cy="-247.9278651837" r="2" />
    <circle cx="512.8025975433" cy="-834.2764526554" r="2" />
    <circle cx="499.9910130265" cy="-865.9515602158" r="2" />
    <circle cx="285.3379243493" cy="-151.4357306546" r="2" />
    <circle cx="255.5276378804" cy="-126.7071642750" r="2" />
    <circle cx="487.9663639223" cy="-296.7607705607" r="2" />
    <circle cx="546.4683495526" cy="-387.3350875815" r="2" />
    <circle cx="491.8196415244" cy="-847.0961500452" r="2" />
    <circle cx="499.9961576073" cy="-866.0026593098" r="2" />
    <circle cx="484.0625076893" cy="-528.7040494154" r="2" />
    <circle cx="477.3863491062" cy="-277.1537745993" r="2" />
    <circle cx="521.1472116752" cy="-221.7835343143" r="2" />
    <circle cx="400.8265020532" cy="-163.2516742300" r="2" />
    <circle cx="270.9263902495" cy="-171.9446633455" r="2" />
    <circle cx="500.0000000000" cy="-866.0254038000" r="2" />
    <circle cx="500.0000000000" cy="-866.0254038000" r="2" />
    <circle cx="1000.0000000000" cy="-0.0000000000" r="2" />
    <circle cx="466.3147718485" cy="-338.3630448835" r="2" />
    <circle cx="0.0000000000" cy="-0.0000000000" r="2" />
    <circle cx="500.0000000000" cy="-866.0254038000" r="2" />
    <circle cx="484.7218996628" cy="-578.3296168112" r="2" />
    <circle cx="1000.0000000000" cy="-0.0000000000" r="2" />
    <circle cx="464.6610345710" cy="-298.9533381870" r="2" />
    <circle cx="498.6502575648" cy="-847.7988099315" r="2" />
    <circle cx="0.0000000000" cy="-0.0000000000" r="2" />
    <circle cx="500.0000000000" cy="-866.0254038000" r="2" />
    <circle cx="517.4952118099" cy="-573.7039337885" r="2" />
    <circle cx="0.0000000000" cy="-0.0000000000" r="2" />
    <circle cx="502.1352966684" cy="-288.4527677190" r="2" />
    <circle cx="29.0023903214" cy="-17.5290395061" r="2" />
    <circle cx="1000.0000000000" cy="-0.0000000000" r="2" />
    <circle cx="666.1612157221" cy="-195.0716315061" r="2" />
    <circle cx="495.7196764726" cy="-309.6295660061" r="2" />
    <circle cx="501.8063294795" cy="-815.4749732170" r="2" />
    <circle cx="500.0000000000" cy="-866.0254038000" r="2" />
    <circle cx="500.0000000000" cy="-866.0254038000" r="2" />
    <circle cx="464.0636223705" cy="-702.4048636565" r="2" />
    <circle cx="1000.0000000000" cy="-0.0000000000" r="2" />
    <circle cx="571.3734715243" cy="-149.6472846216" r="2" />
    <circle cx="993.3517414159" cy="-0.4416866757" r="2" />
    <circle cx="500.0000000000" cy="-866.0254038000" r="2" />
    <circle cx="716.9059394268" cy="-192.4728430595" r="2" />
    <circle cx="467.1512006109" cy="-262.9613942013" r="2" />
    <circle cx="966.1220092605" cy="-4.8017842743" r="2" />
    <circle cx="1000.0000000000" cy="-0.0000000000" r="2" />
    <circle cx="745.4163833621" cy="-126.2498420477" r="2" />
    <circle cx="499.0274278288" cy="-274.2669320161" r="2" />
    <circle cx="20.4503745601" cy="-2.3786007378" r="2" />
    <circle cx="477.3381341829" cy="-277.0405781131" r="2" />
    <circle cx="1000.0000000000" cy="-0.0000000000" r="2" />
    <circle cx="0.0000000000" cy="-0.0000000000" r="2" />
    <circle cx="1000.0000000000" cy="-0.0000000000" r="2" />
    <circle cx="466.3131542998" cy="-338.4046595351" r="2" />
    <circle cx="500.0000000000" cy="-866.0254038000" r="2" />
    <circle cx="1000.0000000000" cy="-0.0000000000" r="2" />
    <circle cx="256.6257051662" cy="-130.5915657373" r="2" />
    <circle cx="0.0000000000" cy="-0.0000000000" r="2" />
    <circle cx="508.6417660337" cy="-252.9641171984" r="2" />
    <circle cx="984.9169997558" cy="-10.2548286517" r="2" />
    <circle cx="1000.0000000000" cy="-0.0000000000" r="2" />
    <circle cx="500.0000000000" cy="-866.0254038000" r="2" />
    <circle cx="482.4166446285" cy="-573.4082789853" r="2" />
    <circle cx="1000.0000000000" cy="-0.0000000000" r="2" />
    <circle cx="497.7487119425" cy="-288.3983709282" r="2" />
    <circle cx="970.9735872480" cy="-17.5683776243" r="2" />
    <circle cx="0.0000000000" cy="-0.0000000000" r="2" />
    <circle cx="333.9041833785" cy="-195.1634534284" r="2" />
    <circle cx="495.5623366571" cy="-309.5046930737" r="2" />
    <circle cx="498.2398105058" cy="-815.4849159617" r="2" />
    <circle cx="1000.0000000000" cy="-0.0000000000" r="2" />
    <circle cx="1000.0000000000" cy="-0.0000000000" r="2" />
    <circle cx="123.7309760650" cy="-112.9320286557" r="2" />
    <circle cx="0.0000000000" cy="-0.0000000000" r="2" />
    <circle cx="656.0848989822" cy="-296.4059272175" r="2" />
    <circle cx="3.7033177998" cy="-5.5318027981" r="2" />
    <circle cx="0.0000000000" cy="-0.0000000000" r="2" />
    <circle cx="691.8712513964" cy="-148.8109017105" r="2" />
    <circle cx="538.6601516993" cy="-273.0074370975" r="2" />
    <circle cx="978.9321290500" cy="-26.9111641900" r="2" />
    <circle cx="0.0000000000" cy="-0.0000000000" r="2" />
    <circle cx="482.1362380613" cy="-582.1177160433" r="2" />
    <circle cx="513.1100887206" cy="-294.9592473019" r="2" />
    <circle cx="979.5417648354" cy="-2.3855958810" r="2" />
    <circle cx="477.6023554021" cy="-277.2104321601" r="2" />
    <circle cx="1000.0000000000" cy="-0.0000000000" r="2" />
    <circle cx="1000.0000000000" cy="-0.0000000000" r="2" />
    <circle cx="0.0000000000" cy="-0.0000000000" r="2" />
    <circle cx="0.0000000000" cy="-0.0000000000" r="2" />
    <circle cx="500.0000000000" cy="-866.0254038000" r="2" />
    <circle cx="1000.0000000000" cy="-0.0000000000" r="2" />
    <circle cx="1000.0000000000" cy="-0.0000000000" r="2" />
    <circle cx="1000.0000000000" cy="-0.0000000000" r="2" />
    <circle cx="1000.0000000000" cy="-0.0000000000" r="2" />
    <circle cx="500.0000000000" cy="-866.0254038000" r="2" />
    <circle cx="0.0000000000" cy="-0.0000000000" r="2" />
    <circle cx="500.0000000000" cy="-866.0254038000" r="2" />
    <circle cx="0.0000000000" cy="-0.0000000000" r="2" />
    <circle cx="500.0000000000" cy="-866.0254038000" r="2" />
    <circle cx="0.0000000000" cy="-0.0000000000" r="2" />
    <circle cx="1000.0000000000" cy="-0.0000000000" r="2" />
    <circle cx="500.0000000000" cy="-866.0254038000" r="2" />
    <circle cx="0.0000000000" cy="-0.0000000000" r="2" />
    <circle cx="1000.0000000000" cy="-0.0000000000" r="2" />
    <circle cx="500.0000000000" cy="-866.0254038000" r="2" />
    <circle cx="0.0000000000" cy="-0.0000000000" r="2" />
    <circle cx="1000.0000000000" cy="-0.0000000000" r="2" />
    <circle cx="0.0000000000" cy="-0.0000000000" r="2" />
    <circle cx="1000.0000000000" cy="-0.0000000000" r="2" />
    <circle cx="466.2904859680" cy="-338.5354685019" r="2" />
    <circle cx="500.0000000000" cy="-866.0254038000" r="2" />
    <circle cx="0.0000000000" cy="-0.0000000000" r="2" />
    <circle cx="256.9992159952" cy="-130.6756914158" r="2" />
    <circle cx="500.0000000000" cy="-866.0254038000" r="2" />
    <circle cx="473.3227822383" cy="-314.1612149633" r="2" />
    <circle cx="498.6465166836" cy="-847.8367777698" r="2" />
    <circle cx="500.0000000000" cy="-866.0254038000" r="2" />
    <circle cx="1000.0000000000" cy="-0.0000000000" r="2" />
    <circle cx="755.2792122839" cy="-161.6091242335" r="2" />
    <circle cx="1000.0000000000" cy="-0.0000000000" r="2" />
    <circle cx="497.7297760155" cy="-288.4669032871" r="2" />
    <circle cx="971.0277636350" cy="-17.5391156881" r="2" />
    <circle cx="0.0000000000" cy="-0.0000000000" r="2" />
    <circle cx="334.2367979097" cy="-195.3188119159" r="2" />
    <circle cx="504.2741624788" cy="-309.7420495407" r="2" />
    <circle cx="501.7856602142" cy="-815.4717027841" r="2" />
    <circle cx="1000.0000000000" cy="-0.0000000000" r="2" />
    <circle cx="0.0000000000" cy="-0.0000000000" r="2" />
    <circle cx="876.0880315691" cy="-113.1710041452" r="2" />
    <circle cx="0.0000000000" cy="-0.0000000000" r="2" />
    <circle cx="584.8122713059" cy="-420.1618554800" r="2" />
    <circle cx="993.3569498583" cy="-0.4401751863" r="2" />
    <circle cx="1000.0000000000" cy="-0.0000000000" r="2" />
    <circle cx="716.5831960243" cy="-192.7085466394" r="2" />
    <circle cx="538.6946561264" cy="-273.0442779149" r="2" />
    <circle cx="512.7829382571" cy="-834.2900912245" r="2" />
    <circle cx="0.0000000000" cy="-0.0000000000" r="2" />
    <circle cx="255.1201407857" cy="-126.5775721377" r="2" />
    <circle cx="498.9396355336" cy="-274.1857180791" r="2" />
    <circle cx="508.1685262156" cy="-847.1124749362" r="2" />
    <circle cx="478.7124386446" cy="-274.9207526767" r="2" />
    <circle cx="500.0000000000" cy="-866.0254038000" r="2" />
    <circle cx="500.0000000000" cy="-866.0254038000" r="2" />
    <circle cx="1000.0000000000" cy="-0.0000000000" r="2" />
    <circle cx="500.0000000000" cy="-866.0254038000" r="2" />
    <circle cx="0.0000000000" cy="-0.0000000000" r="2" />
    <circle cx="0.0000000000" cy="-0.0000000000" r="2" />
    <circle cx="0.0000000000" cy="-0.0000000000" r="2" />
    <circle cx="0.0000000000" cy="-0.0000000000" r="2" />
    <circle cx="1000.0000000000" cy="-0.0000000000" r="2" />
    <circle cx="1000.0000000000" cy="-0.0000000000" r="2" />
    <circle cx="500.0000000000" cy="-866.0254038000" r="2" />
    <circle cx="0.0000000000" cy="-0.0000000000" r="2" />
    <circle cx="500.0000000000" cy="-866.0254038000" r="2" />
    <circle cx="1000.0000000000" cy="-0.0000000000" r="2" />
    <circle cx="500.0000000000" cy="-866.0254038000" r="2" />
    <circle cx="500.0000000000" cy="-866.0254038000" r="2" />
    <circle cx="1000.0000000000" cy="-0.0000000000" r="2" />
    <circle cx="500.0000000000" cy="-866.0254038000" r="2" />
    <circle cx="500.0000000000" cy="-866.0254038000" r="2" />
    <circle cx="500.0000000000" cy="-866.0254038000" r="2" />
    <circle cx="0.0000000000" cy="-0.0000000000" r="2" />
    <circle cx="0.0000000000" cy="-0.0000000000" r="2" />
    <circle cx="500.0000000000" cy="-866.0254038000" r="2" />
    <circle cx="0.0000000000" cy="-0.0000000000" r="2" />
    <circle cx="500.0000000000" cy="-866.0254038000" r="2" />
    <circle cx="1000.0000000000" cy="-0.0000000000" r="2" />
    <circle cx="0.0000000000" cy="-0.0000000000" r="2" />
    <circle cx="0.0000000000" cy="-0.0000000000" r="2" />
    <circle cx="1000.0000000000" cy="-0.0000000000" r="2" />
    <circle cx="500.0000000000" cy="-866.0254038000" r="2" />
    <circle cx="1000.0000000000" cy="-0.0000000000" r="2" />
    <circle cx="500.0000000000" cy="-866.0254038000" r="2" />
    <circle cx="0.0000000000" cy="-0.0000000000" r="2" />
    <circle cx="1000.0000000000" cy="-0.0000000000" r="2" />
    <circle cx="0.0000000000" cy="-0.0000000000" r="2" />
    <circle cx="500.0000000000" cy="-866.0254038000" r="2" />
    <circle cx="1000.0000000000" cy="-0.0000000000" r="2" />
    <circle cx="1000.0000000000" cy="-0.0000000000" r="2" />
    <circle cx="500.0000000000" cy="-866.0254038000" r="2" />
    <circle cx="500.0000000000" cy="-866.0254038000" r="2" />
    <circle cx="500.0000000000" cy="-866.0254038000" r="2" />
    <circle cx="0.0000000000" cy="-0.0000000000" r="2" />
    <circle cx="385.2686876066" cy="-130.3953063948" r="2" />
    <circle cx="433.8362372721" cy="-213.8867152429" r="2" />
    <circle cx="566.1405044706" cy="-213.9323182276" r="2" />
    <circle cx="531.4427529181" cy="-383.1780518976" r="2" />
    <circle cx="597.5248227416" cy="-269.0110426686" r="2" />
    <circle cx="566.4675162347" cy="-214.3866196265" r="2" />
    <circle cx="402.4990137623" cy="-268.7454174977" r="2" />
  </g>
  <g id="fig2" transform="translate(-550.0,1000)">
	<polygon points="0.0,-0.0 1000.0,-0.0 500.0,-866.0254038" />
	<line
	   id="line2-1"
	   y2="-0.0"
	   x2="500"
	   y1="-288.6751346"
	   x1="500" />
	<line
	   id="line2-2"
	   y2="-433.0127019"
	   x2="250"
	   y1="-288.6751346"
	   x1="500" />
	<line
	   id="line2-3"
	   y2="-433.0127019"
	   x2="750"
	   y1="-288.6751346"
	   x1="500" />
	<text
	   x="440"
	   y="-500"
	   id="up_2">32.4%</text>
	<text
	   x="250"
	   y="-150"
	   id="down_left_2">33.8%</text>
	<text
	   x="630"
	   y="-150"
	   id="down_right_2">33.8%</text>
  </g>
  <g id="fig3" transform="translate(550,1000)">
	<polygon points="0.0,-0.0 1000.0,-0.0 500.0,-866.0254038" />
	<polygon id="triangle3b" points="250,-144.3375673 750,-144.3375673 500,-577.3502692" />
	<line
	   id="line3-1"
	   x1="125"
	   y1="-216.5063509"
	   x2="250"
	   y2="-144.3375673" />
	<line
	   id="line3-2"
	   x1="375"
	   y1="-649.5190528"
	   x2="500"
	   y2="-577.3502692" />
	<line
	   id="line3-3"
	   x1="625"
	   y1="-649.5190528"
	   x2="500"
	   y2="-577.3502692" />
	<line
	   id="line3-4"
	   x1="875"
	   y1="-216.5063509"
	   x2="750"
	   y2="-144.3375673" />
	<line
	   id="line3-5"
	   x1="750"
	   y1="-0.0"
	   x2="750"
	   y2="-144.3375673" />
	<line
	   id="line3-6"
	   x1="250"
	   y1="-0.0"
	   x2="250"
	   y2="-144.3375673" />
	<text
	   x="500"
	   y="-660"
	   text-anchor="middle"
	   id="up_3">24.3%</text>
	<text
	   y="-50"
	   x="70"
	   id="down_left_3">20.5%</text>
	<text
	   y="-50"
	   x="770"
	   id="down_right_3">22.9%</text>
	<text
	   x="500"
	   y="-50"
	   text-anchor="middle"
	   id="down_side_3">2.9%</text>
	<text
	   x="500"
	   y="-280"
	   text-anchor="middle"
	   id="center_3">26.2%</text>
	<text
	   x="685.0"
	   y="-390.8439"
	   text-anchor="middle"
	   transform="rotate(60,665.0,-380.8439)"
	   id="right_side_3">1.0%</text>
	<text
	   x="315.0"
	   y="-390.8439"
	   text-anchor="middle"
	   transform="rotate(-60,335.0,-380.8439)"
	   id="left_side_3">2.4%</text>
  </g>
</g></g>
</svg>
